<?xml version="1.0" encoding="utf-8"?>
<svg version="1.1" id="Layer_1" xmlns="http://www.w3.org/2000/svg" xmlns:xlink="http://www.w3.org/1999/xlink" x="0px" y="0px"
	 viewBox="0 0 1522 1678.954" enable-background="new 0 0 1522 1678.954" xml:space="preserve">
<g id="Man_Head_Silhouette">
</g>
<g id="Red_Heart">
	<g>
		<path id="path19449_1_" d="M548.498,1639.477h781.666c-32.843-154.35-72.15-408.273-55.23-470.509
			c27.867-105.553,117.921-185.216,151.761-269.858c172.155-430.179-38.201-804.688-513.982-854.383
			C492.598,0.846,258.918,239.402,226.075,485.859c-3.481,26.388,0,52.776,12.442,80.161
			c-57.715,90.119-190.57,223.055-202.01,286.786c-6.968,38.337,38.311,51.78,60.206,65.224c20.899,6.971,43.785,1.99,57.715,18.92
			c9.951,12.448-3.481,33.359-6.47,48.794c-0.498,25.392-30.346,37.84-27.363,61.24c2.989,19.916,19.903,27.883,35.328,40.33
			c16.421,12.944-41.798,37.839-22.892,60.743c19.404,22.404,47.77,48.295,37.813,80.16
			c-14.429,49.291-42.296,100.573-19.405,138.911c22.892,37.84,54.732,60.244,103.991,70.2c60.671,0,121.653,0.931,182.7,1.327
			c33.999,0.221,64.926,19.568,80.147,49.97C542.592,1537.187,552.422,1587.5,548.498,1639.477z"/>
		<g>
			<path fill="none" stroke="#FFFFFF" stroke-width="2.3027" stroke-miterlimit="10" d="M445.618,540.056
				c-17.624-19.76-20.748-58.464-17.976-83.18c0.401-3.585,3.033-10.07,1.889-13.687c-1.256-3.975-11.507-10.344-14.84-13.482
				c-4.626-4.356-7.496-9.918-22.926-13.509c-3.992-0.929-14.76-0.094-20.473-3.224c-0.866,14.807-0.505,29.633,1.017,44.474
				c3.422,2.802,8.822,7.184,2.335,10.327c-0.331,0.16-0.681,0.266-1.043,0.333c1.008,7.231,2.29,14.465,3.828,21.702
				c2.689-2.286,5.478-3.912,8.225-4.34c21.382-3.329-0.378,13.375-4.962,18.246c5.719,22.162,13.832,44.35,24.066,66.553
				c2.132-4.749,4.65-8.957,5.97-10.47C418.791,550.561,433.325,541.632,445.618,540.056z"/>
			<path fill="none" stroke="#FFFFFF" stroke-width="2.3027" stroke-miterlimit="10" d="M432.731,431.048
				c11.8-46.689,27.582-46.142,31.864-59.739c2.927-9.295,1.02,0.014-11.818-23.29c-2.382-4.326-5.76-8.608-7.087-13.438
				c-2.668-9.72,1.505-9.421-9.776-10.347c-11.807-0.968-19.949-0.981-30.417,5.551c-3.917,2.444-13.636,10.73-18.12,5.434
				c-3.737,10.496-6.965,21.517-9.647,33.066c-2.956,12.729-4.925,25.475-5.981,38.234
				C397.487,400.276,416.3,410.852,432.731,431.048z"/>
			<path fill="none" stroke="#FFFFFF" stroke-width="2.3027" stroke-miterlimit="10" d="M877.24,322.215
				c-2.486,32.401-5.767,83.118,29.398,101.209c2.496-5.518,12.589-15.349,19.502-13.372c-0.673,13.587-16.424,29.655-22.271,41.614
				c-35.554,72.727-28.193,89.221-28.152,156.7c0.031,49.031,36.071,72.886,78.286,88.793
				c27.099,10.209,35.792,20.343,23.614,21.529c-4.392,0.428-10.078-4.837-13.869-6.379c-5.054-2.056-10.001-3.056-15.257-4.799
				c-27.29-9.055-35.225-17.152-43.432-20.212c-6.608-2.463-3.619-3.766-9.936-0.254c-10.279,5.713-17.417,25.586-18.344,36.497
				c-0.853,10.045,3.647,18.951,6.662,28.402c5.878-6.253,7.137-14.821,16.443-16.957c2.677-0.614,13.303-1.077,13.31,3.774
				c0.004,3.416-15.521,15.6-18.067,19.35c-4.097,6.034-6.428,12.422-9.577,18.963c-23.558,48.946-27.778,104.033-4.843,159.765
				c10.444,25.377,25.524,59.109,8.334,51.249c-4.855-2.22-8.981-14.357-10.059-18.913c-16.861,15.537-17.279,33.545-8.023,47.886
				c63.21-48.058,123.044-97.386,177.227-147.335c-20.608,1.309-41.409-0.964-60.141-6.11c1.833,15.505,4.678,33.796-8.726,45.475
				c-5.442,4.741-24.568,9.753-31.244,5.332c-14.539-9.627,25.494-15.874,29.445-33.392c1.207-5.352,0.435-21.243-2.045-24.479
				c-1.093-1.427-56.708-29.194-36.36-37.069c5.853-2.265,14.81,9.987,18.77,13.386c27.158,23.316,69.904,30.094,105.963,22.253
				c95.367-89.977,171.756-181.75,215.951-271.542c-6.797-7.715-13.885-21.882-18.248-24.989c-3.437-2.449-17.337-11.108-21.364-9.9
				c-4.425,1.326-10.173,12.124-13.48,15.678c-22.91,24.618-54.44,36.817-60.456,30.708c-5.864-5.956,9.298-11.427,13.111-13.037
				c43.432-18.339,76.391-61.85,75.789-110.246c-0.564-45.348-26.532-98.127-63.822-125.261c-8.165-5.941-24.159-8.4-24.152-18.939
				c0.011-17.794,20.141-22.295,8.805-60.703c-2.234-7.567-8.747-25.079,3.261-28.882c0.281,0.426,0.516,0.802,0.713,1.137
				c9.625,15.775,11.541,44.141,10.156,61.545c-0.354,4.451-2.7,9.501-2.728,13.743c-0.088,13.263,18.654,28.578,30.513,43.21
				c14.75-24.374,22.56-41.395,15.196-70.835c-6.704-26.804-21.653-23.24-21.186-34.736c12.213,0.058,25.887,13.045,32.107,23.281
				c6.062,9.972,3.656,25.603,4.468,36.64c11.5-0.33,20.631,0.215,31.713,3.134c4.278,1.128,14.811,2.895,21.436,6.583
				c-7.925-18.735-17.974-35.903-29.95-51.386c-7.719,3.981-16.826,8.175-16.87-1.483c-0.006-1.242,3.143-8.869,4.829-12.815
				c-37.158-40.574-89.101-67.467-151.365-78.023c1.874,3.064,3.239,5.937,3.899,8.286c3.148,11.195,3.259,28.026,1.134,39.389
				c9.693-0.82,19.121-1.458,28.435-4.176c8.484-2.476,13.719-6.229,10.764,5.165c-5.069,19.542-35.398,11.031-41.109,12.419
				c-5.979,1.455-7.525,6.256-13.306,10.676c-12.808,9.79-26.607,9.407-41.701,10.475c1.794,5.12,12.752,41.67-2.522,27.788
				c-5.972-5.428-6.843-17.294-10.432-24.374c-1.916-3.777-20.885-22.8-13.938-28.033c4.68-3.526,18.925,14.853,23.912,15.171
				c8.929,0.57,29.505-10.004,36.416-15.468c13.449-10.632,12.407-28.264,8.259-43.383c-1.96-7.146-5.133-12.195-8.748-16.6
				c-0.589-0.067-1.174-0.14-1.764-0.204c-10.036-1.085-19.795-1.61-29.311-1.61c-34.182,0-65.003,6.805-92.403,18.936
				c13.437,0.603,29.782,3.448,49.961,9.956c5.703,1.84,26.601,4.386,25.982,13.512c-30.095,4.904-49.883-23.603-97.321-12.54
				c-21.934,12.787-41.333,29.21-58.156,48.346c1.395,4.165,2.955,8.25,3.057,12.317
				C890.161,294.929,879.045,298.685,877.24,322.215z M936.623,471.527c13.498-7.092,25.951-6.055,40.445-6.6
				c-12.402-20.755-14.311-47.166-3.814-70.27c1.867-4.107,12.294-15.426,11.903-19.628c-0.261-2.804-8.191-9.827-10.058-11.952
				c-3.917-4.46-7.598-10.38-12.19-13.839c-2.961-2.228-25.552-12.514-9.206-14.548c11.538-1.21,23.645,12.533,32.151,18.181
				c24.645,16.367,27.818,8.514,42.422,7.612c4.586,13.818-4.842,19.448-15.625,20.397c-10.773,0.949-21.519-6.473-29.96,26.181
				c-5.163,19.979-2.107,31.591,3.816,51.535c2.122,7.143-0.671,5.341,5.172,8.861c6.389,3.849,12.996-0.547,17.061,8.364
				c-1.526,4.131-42.748-3.122-49.85-1.517c-22.547,5.093-33.98,26.638-42.363,25.574
				C900.17,497.804,931.309,474.319,936.623,471.527z M1096.019,779.029c-19.271,12.985-38.818,13.51-61.723,14.498
				c-8.576,0.37-17.926,1.298-26.216-1.448c-0.837-0.278-9.34-5.5-14.102-6.256c-7.486-1.189-10.756,1.411-17.872,4.667
				c-9.251,4.234-29.857,14.098-40.549,11.152c-20.726-5.711,18.537-13.104,21.776-14.249c15.205-5.373,7.816-19.358,42.416-15.171
				c4.198,0.508,16.88,6.242,21.506-18.641c2.116-11.372-3.526-18.611-5.647-29.411c-3.09-11.714,14.197-0.845,16.419,3.041
				c5.404,9.448,8.749,38.031-5.748,54.255c15.329,3.71,35.441-1.959,49.929-6.718c27.765-9.118,27.463-25.777,40.172-27.366
				C1121.74,764.658,1107.627,771.208,1096.019,779.029z M931.159,272.887c4.938-6.6,24.049-3.195,30.264-2.932
				c-2.449-4.875-2.493-10.756-4.531-15.828c-2.381-5.929-7.129-10.501-8.577-16.896c-1.169-18.407,43.952,30.56,20.713,32.98
				c77.802,0,76.281,68.859,113.408,101.948c19.182,17.095,35.114,22.005,59.423,14.025c15.782-5.181,20.615-14.71,32.735-23.515
				c29.439,37.58-53.707,40.365-71.921,41.124c13.018,17.41-3.093,46.928-16.017,59.709c36.7,26.737,9.855,92.876-60.102,81.185
				c-0.278,11.947,0.636,22.118-2.589,33.392c34.838,6.152,63.065,37.99,63.937,73.313c23.111-5.286,27.48-13.041,85.958,11.854
				c10.573-45.589,67.032-47.475,74.005-37.688c-11.704,5.644-24.892,3.552-36.661,9.255c-23.288,11.284-21.37,36.436-29.845,42.498
				c-7.679,5.494-14.999-5.081-21.792-9.082c-34.774-20.479-68.88-10.143-71.923-6.661c-2.925,3.346-0.898,16.768-1.731,21.872
				c-0.799,4.891-2.201,9.137-3.383,13.856c-1.051,4.201-1.102,9.344-3.581,13.044c-2.512,3.749-14.198,10.65-18.127,4.247
				c-2.105-3.43,9.314-19.102,10.507-22.512c4.472-12.782,7.419-31.185,5.224-44.616c-3.487-21.337-19.141-44.949-38.77-54.489
				c-44.212-21.491-48.779,26.744-63.255,27.386c-13.418,0.595-31.793-36.53-61.536,1.705c-7.852,10.093-23.944,20.347-17.521-1.689
				c10.498-36.018,52.979-25.429,77.757-16.625c7.926-20.124,20.93-27.83,41.614-27.262c-0.8-10.6,2.035-20.535-0.822-30.945
				c-6.666-24.292-33.565-30.998-23.871-38.505c3.725-2.885,17.646,2.032,27.218,15.532c8.844,12.473,4.322,13.471,23.804,11.725
				c16.541-1.481,35.806-8.142,43.322-25.077c6.685-15.065,0.091-22.065-6.793-34.235c-6.029-10.662-0.334-14.744,5.633-23.8
				c15.295-23.218,10.436-50.445-2.171-64.125c-11.156-12.106-21.784-21.137-29.369-36.349
				c-10.125-20.306-20.432-43.161-38.844-57.553C977.465,265.415,918.607,289.664,931.159,272.887z"/>
			<path fill="none" stroke="#FFFFFF" stroke-width="2.3027" stroke-miterlimit="10" d="M857.444,977.385
				c3.882-9.737,16.224-20.517,15.267-31.196c-0.873-9.741-9.588-20.808-13.003-30.306c-7.077-19.683-8.5-79.37,13.79-140.578
				c3.556-9.764,3.211-10.322-2.927-18.79c-19.408-26.78,1.18-67.325,17.754-82.393c-28.796-31.102-22.457-40.883-22.277-78.688
				c0.368-76.661-3.32-74.94,22.55-135.716c3.459-8.131,8.639-16.457,11.608-24.611c-21.134-5.122-33.793-42.472-34.383-61.718
				c-2.036-66.431,1.886-58.913,9.51-95.004c1.646-7.792,2.742-8.263-0.762-12.312c-10.902,14.273-20.539,29.763-28.893,46.155
				c-8.297-16.263-17.741-31.409-28.344-45.265c-2.588,3.276-1.541,4.241-0.023,11.422c7.787,36.863,11.503,30.019,9.51,95.004
				c-0.59,19.245-13.249,56.596-34.383,61.718c2.201,6.043,30.258,59.296,32.848,88.757c2.08,23.671,1.196,47.846,1.31,71.57
				c0.181,38.161,6.402,47.709-22.277,78.688c16.138,14.671,37.448,55.221,17.755,82.393c-10.359,14.291-3.888,6.542,7.325,52.896
				c4.085,16.888,6.647,28.063,6.977,46.153c0.363,19.902,3.436,41.2-3.439,60.319c-3.415,9.498-12.13,20.565-13.003,30.306
				c-0.957,10.68,11.385,21.46,15.267,31.196c5.606,14.061,4.056,32.271,0.341,50.603c3.374,2.7,6.752,5.4,10.136,8.099
				c3.837-2.858,7.661-5.721,11.475-8.589C853.504,1009.173,851.988,991.072,857.444,977.385z"/>
			<path fill="none" stroke="#FFFFFF" stroke-width="2.3027" stroke-miterlimit="10" d="M1287.146,329.786
				c-10.468-6.532-18.61-6.52-30.418-5.551c-11.282,0.926-7.108,0.627-9.776,10.347c-1.326,4.83-4.704,9.112-7.087,13.438
				c-12.834,23.3-14.746,13.994-11.818,23.29c4.191,13.305,20.15,13.379,31.864,59.739c16.512-20.296,35.43-30.878,61.367-24.434
				c-0.968-16.612-3.48-33.054-7.652-49.296c-2.095-8.159-4.544-16.081-7.333-23.763
				C1302.484,341.977,1291.397,332.438,1287.146,329.786z"/>
			<path fill="none" stroke="#FFFFFF" stroke-width="2.3027" stroke-miterlimit="10" d="M1277.951,429.707
				c-3.334,3.137-13.584,9.506-14.84,13.482c-1.144,3.617,1.488,10.102,1.889,13.687c2.771,24.715-0.352,63.42-17.976,83.18
				c12.293,1.578,26.828,10.505,34.888,19.743c1.14,1.307,3.173,4.622,5.079,8.559c9.995-22.095,17.985-44.057,23.77-65.828
				c-6.226-5.926-23.652-20.157-3.769-17.061c2.367,0.369,4.765,1.631,7.103,3.434c1.578-7.05,2.918-14.079,4.015-21.085
				c-0.036-0.016-0.073-0.028-0.108-0.045c-5.958-2.887-1.887-6.82,1.469-9.613c1.898-15.226,2.628-30.338,2.105-45.313
				c-5.65,3.28-16.655,2.41-20.7,3.351C1285.451,419.788,1282.56,425.368,1277.951,429.707z"/>
			<path fill="none" stroke="#FFFFFF" stroke-width="2.3027" stroke-miterlimit="10" d="M813.661,969.177
				c-1.078,4.557-5.203,16.693-10.059,18.913c-17.885,8.178-0.682-29.343,8.334-51.249c22.875-55.585,18.79-110.665-4.843-159.765
				c-3.148-6.542-5.48-12.929-9.577-18.963c-2.546-3.75-18.072-15.934-18.067-19.35c0.007-4.851,10.634-4.388,13.31-3.774
				c9.307,2.136,10.565,10.704,16.443,16.957c3.015-9.45,7.516-18.356,6.662-28.401c-0.926-10.91-8.065-30.785-18.344-36.497
				c-6.318-3.512-3.329-2.209-9.936,0.254c-8.202,3.059-16.153,11.161-43.432,20.212c-5.256,1.744-10.203,2.744-15.257,4.799
				c-3.792,1.541-9.477,6.807-13.869,6.379c-13.025-1.269-1.735-11.978,23.614-21.529c42.216-15.907,78.255-39.763,78.286-88.793
				c0.042-67.549,7.4-83.98-28.152-156.7c-5.846-11.959-21.597-28.027-22.271-41.614c6.913-1.977,17.006,7.854,19.502,13.372
				c35.165-18.091,31.884-68.807,29.398-101.209c-1.783-23.233-12.918-27.424-12.142-58.164c0.092-3.644,1.359-7.304,2.627-11.024
				c-18.244-20.68-39.486-37.888-63.82-50.88c-43.114-7.394-62.453,18.471-91.226,13.782c-0.619-9.126,20.279-11.672,25.982-13.512
				c17.932-5.783,32.834-8.667,45.361-9.654c-28.818-11.892-61.474-18.35-98.102-18.349c-6.718,0-13.579,0.224-20.565,0.665
				c-3.703,4.466-6.963,9.575-8.962,16.863c-4.148,15.119-5.19,32.75,8.259,43.383c6.911,5.464,27.487,16.037,36.416,15.468
				c4.987-0.317,19.232-18.697,23.912-15.171c6.947,5.233-12.022,24.256-13.938,28.032c-3.589,7.08-4.46,18.946-10.432,24.374
				c-15.274,13.882-4.317-22.668-2.522-27.788c-15.094-1.068-28.893-0.685-41.701-10.475c-5.781-4.42-7.326-9.221-13.306-10.676
				c-5.904-1.436-36.036,7.14-41.109-12.42c-2.955-11.396,2.28-7.642,10.764-5.165c9.314,2.718,18.742,3.356,28.435,4.176
				c-2.125-11.362-2.014-28.194,1.134-39.389c0.744-2.648,2.38-5.962,4.637-9.464c-59.445,7.571-113.143,33.641-152.218,78.922
				c1.651,3.853,4.954,11.82,4.948,13.093c-0.044,9.557-8.961,5.55-16.627,1.608c-10.917,14.964-20.395,31.711-28.195,50.251
				c6.584-3.011,15.565-4.554,19.433-5.574c11.081-2.919,20.213-3.464,31.713-3.134c0.811-11.036-1.594-26.667,4.468-36.64
				c6.221-10.235,19.895-23.223,32.107-23.281c0.471,11.553-14.462,7.855-21.186,34.736c-7.363,29.441,0.446,46.462,15.196,70.835
				c11.861-14.634,30.6-29.946,30.513-43.21c-0.028-4.242-2.373-9.292-2.728-13.743c-1.387-17.408,0.531-45.783,10.161-61.555
				c0.196-0.333,0.428-0.705,0.707-1.127c17.138,5.429-2.477,30.079-0.008,55.653c1.11,11.486,12.067,22.962,12.074,33.932
				c0.007,10.54-15.987,12.998-24.152,18.939c-37.29,27.134-63.257,79.913-63.822,125.261
				c-0.602,48.396,32.357,91.906,75.789,110.246c3.812,1.61,18.975,7.08,13.111,13.037c-5.967,6.06-37.341-5.87-60.455-30.708
				c-3.307-3.553-9.055-14.351-13.48-15.678c-4.027-1.208-17.927,7.452-21.364,9.9c-4.598,3.275-12.223,18.835-19.344,26.179
				c45.422,90.481,125.252,181.181,222.097,271.363c34.98,6.19,75.064-1.07,100.915-23.263c3.961-3.399,12.919-15.651,18.77-13.386
				c20.348,7.876-35.267,35.643-36.36,37.069c-2.48,3.237-3.252,19.127-2.045,24.479c3.947,17.499,43.987,23.764,29.445,33.392
				c-6.676,4.42-25.802-0.591-31.244-5.332c-13.404-11.679-10.559-29.971-8.726-45.475c-17.414,4.784-36.615,7.083-55.787,6.332
				c53.79,49.199,112.385,98.232,172.953,146.981C830.935,1002.615,830.483,984.676,813.661,969.177z M776.117,499.879
				c-8.411,1.067-19.743-20.464-42.362-25.574c-7.103-1.604-48.325,5.648-49.85,1.517c4.065-8.911,10.672-4.515,17.061-8.364
				c6.213-3.743,2.123,0.145,7.78-18.545c8.003-26.439,0.594-51.11-7.358-61.991c-6.451-8.829-11.412-5.162-21.394-6.041
				c-10.782-0.949-20.21-6.579-15.625-20.397c7.881,0.487,13.837,3.722,21.922,2.246c21.595-3.948,36.736-29.708,52.649-28.039
				c16.328,2.032-6.2,12.287-9.205,14.548c-4.593,3.459-8.273,9.379-12.19,13.839c-1.867,2.125-9.796,9.148-10.058,11.952
				c-0.392,4.201,10.036,15.521,11.903,19.628c10.498,23.103,8.589,49.515-3.814,70.27c14.494,0.545,26.946-0.493,40.445,6.6
				C761.335,474.319,792.474,497.804,776.117,499.879z M511.286,677.31c-5.054-3.615-6.927-14.553-9.41-19.858
				c-15.709-33.569-38.555-22.953-57.097-31.895c6.962-9.77,63.419-7.958,74.005,37.688c58.521-24.914,63.135-17.074,85.958-11.854
				c0.87-35.323,29.098-67.161,63.937-73.313c-3.224-11.275-2.312-21.446-2.589-33.392c-69.735,11.654-96.918-54.365-60.102-81.185
				c-12.924-12.781-29.035-42.299-16.017-59.709c-18.213-0.759-101.36-3.544-71.921-41.124c12.12,8.806,16.953,18.334,32.735,23.515
				c65.633,21.547,84.164-61.442,111.245-91.096c16.044-17.568,38.202-24.877,61.586-24.877
				c-23.234-2.419,21.881-51.387,20.712-32.979c-1.448,6.395-6.196,10.968-8.575,16.895c-2.038,5.073-2.082,10.954-4.531,15.828
				c6.215-0.262,25.326-3.668,30.263,2.932c7.49,10.011-14.009,6.066-18.334,5.842c-62.734-3.262-77.233,21.708-102.3,71.979
				c-17.305,34.705-39.103,28.826-41.051,71.048c-1.379,29.874,25.324,35.22,15.143,53.226c-6.884,12.171-13.479,19.17-6.793,34.235
				c11.626,26.195,53.496,26.982,57.795,25.173c6.747-2.84,10.323-20.903,27.082-26.335c2.787-0.903,6.556-3.273,9.467-1.019
				c5.676,4.395-3.182,10.551-6.879,13.921c-25.564,23.301-16.413,36.967-17.814,55.529c20.685-0.567,33.688,7.139,41.614,27.262
				c24.778-8.803,67.258-19.394,77.757,16.625c6.423,22.035-9.669,11.782-17.521,1.689c-29.844-38.362-48.026-1.106-61.536-1.705
				c-6.521-0.289-11.059-9.531-14.301-14.297c-29.325-43.087-80.761-1.205-87.723,41.4c-2.195,13.431,0.752,31.834,5.224,44.616
				c1.193,3.41,12.612,19.083,10.507,22.512c-3.929,6.402-15.615-0.498-18.127-4.247c-2.479-3.699-2.529-8.843-3.581-13.044
				c-1.182-4.719-2.584-8.965-3.383-13.856c-0.833-5.105,1.194-18.527-1.731-21.872c-2.725-3.117-36.389-14.266-71.923,6.661
				C526.285,672.23,518.965,682.803,511.286,677.31z M757.085,801.642c-10.691,2.946-31.297-6.917-40.549-11.152
				c-7.116-3.256-10.385-5.857-17.872-4.667c-3.623,0.575-6.674,2.636-9.995,3.96c-3.996,1.592-1.802,4.976-30.323,3.744
				c-22.905-0.988-42.452-1.513-61.723-14.498c-11.608-7.821-25.721-14.371-20.361-31.648c7.682,0.96,12.225,8.962,17.281,13.873
				c16.469,15.997,55.569,24.386,72.819,20.211c-14.502-16.229-11.121-44.86-5.748-54.255c2.209-3.862,19.517-14.775,16.419-3.04
				c-2.128,10.813-7.762,18.043-5.647,29.41c4.613,24.819,17.333,19.146,21.506,18.641c34.606-4.186,27.21,9.798,42.416,15.171
				C738.548,788.537,777.81,795.931,757.085,801.642z"/>
			<path fill="#FFFFFF" stroke="#FFFFFF" stroke-width="2.3027" stroke-miterlimit="10" d="M715.575,464.927
				c12.403-20.754,14.312-47.166,3.814-70.27c-1.867-4.107-12.295-15.426-11.903-19.628c0.261-2.805,8.191-9.827,10.058-11.952
				c3.917-4.46,7.597-10.379,12.19-13.839c3.005-2.262,25.533-12.516,9.205-14.548c-15.914-1.669-31.054,24.09-52.649,28.039
				c-8.085,1.477-14.041-1.759-21.922-2.246c-4.585,13.818,4.843,19.448,15.625,20.397c9.982,0.879,14.943-2.788,21.394,6.041
				c7.952,10.881,15.361,35.551,7.358,61.991c-5.657,18.69-1.567,14.802-7.78,18.545c-6.389,3.849-12.996-0.547-17.061,8.364
				c1.525,4.131,42.747-3.121,49.85-1.517c22.619,5.11,33.952,26.641,42.362,25.574c16.356-2.076-14.783-25.56-20.097-28.352
				C742.521,464.434,730.07,465.472,715.575,464.927z"/>
			<path fill="#FFFFFF" stroke="#FFFFFF" stroke-width="2.3027" stroke-miterlimit="10" d="M735.309,787.393
				c-15.206-5.373-7.81-19.357-42.416-15.171c-4.174,0.505-16.893,6.177-21.506-18.641c-2.115-11.367,3.52-18.598,5.647-29.41
				c3.098-11.735-14.21-0.822-16.419,3.04c-5.373,9.395-8.753,38.026,5.748,54.255c-17.25,4.175-56.35-4.214-72.819-20.211
				c-5.056-4.911-9.6-12.913-17.281-13.873c-5.36,17.277,8.753,23.827,20.361,31.648c19.271,12.985,38.818,13.51,61.723,14.498
				c28.521,1.232,26.327-2.152,30.323-3.744c3.321-1.324,6.372-3.385,9.995-3.96c7.486-1.189,10.756,1.411,17.872,4.667
				c9.252,4.234,29.858,14.098,40.549,11.152C777.81,795.931,738.548,788.537,735.309,787.393z"/>
			<path fill="#FFFFFF" stroke="#FFFFFF" stroke-width="2.3027" stroke-miterlimit="10" d="M605.001,661.567
				c2.925,3.346,0.898,16.768,1.731,21.872c0.799,4.891,2.201,9.137,3.383,13.856c1.052,4.201,1.102,9.344,3.581,13.044
				c2.512,3.749,14.198,10.65,18.127,4.247c2.106-3.429-9.314-19.102-10.507-22.512c-4.472-12.782-7.419-31.184-5.224-44.616
				c6.962-42.605,58.398-84.486,87.723-41.4c3.243,4.766,7.78,14.008,14.301,14.297c13.509,0.599,31.692-36.657,61.536,1.705
				c7.852,10.093,23.944,20.346,17.521-1.689c-10.498-36.018-52.979-25.428-77.757-16.625c-7.926-20.123-20.93-27.83-41.614-27.262
				c1.401-18.563-7.75-32.228,17.814-55.529c3.697-3.37,12.555-9.526,6.879-13.921c-2.911-2.254-6.68,0.115-9.467,1.019
				c-16.759,5.432-20.335,23.495-27.082,26.335c-4.299,1.808-46.169,1.021-57.795-25.173c-6.686-15.065-0.091-22.064,6.793-34.235
				c10.181-18.006-16.522-23.352-15.143-53.226c1.948-42.223,23.746-36.343,41.051-71.048c25.067-50.271,39.566-75.241,102.3-71.979
				c4.324,0.224,25.824,4.169,18.334-5.842c-4.938-6.6-24.049-3.194-30.263-2.932c2.449-4.874,2.493-10.755,4.531-15.828
				c2.379-5.928,7.127-10.5,8.575-16.895c1.169-18.408-43.946,30.56-20.712,32.979c-23.384,0-45.542,7.309-61.586,24.877
				c-27.082,29.654-45.612,112.643-111.245,91.096c-15.782-5.181-20.615-14.71-32.735-23.515
				c-29.439,37.58,53.708,40.365,71.921,41.124c-13.018,17.41,3.094,46.928,16.017,59.709c-36.816,26.82-9.633,92.839,60.102,81.185
				c0.277,11.947-0.636,22.118,2.589,33.392c-34.839,6.152-63.066,37.99-63.937,73.313c-22.823-5.219-27.437-13.059-85.958,11.854
				c-10.586-45.647-67.043-47.458-74.005-37.688c18.542,8.941,41.388-1.674,57.097,31.895c2.483,5.305,4.356,16.243,9.41,19.858
				c7.679,5.494,14.999-5.08,21.792-9.081C568.612,647.301,602.276,658.45,605.001,661.567z"/>
			<path fill="#FFFFFF" stroke="#FFFFFF" stroke-width="2.3027" stroke-miterlimit="10" d="M704.597,863.616
				c-1.833,15.505-4.678,33.796,8.726,45.475c5.442,4.741,24.568,9.753,31.244,5.332c14.542-9.628-25.498-15.893-29.445-33.392
				c-1.207-5.352-0.435-21.243,2.045-24.479c1.093-1.427,56.708-29.193,36.36-37.069c-5.852-2.265-14.81,9.987-18.77,13.386
				c-25.851,22.193-65.935,29.454-100.915,23.263c4.947,4.607,9.935,9.213,14.969,13.817
				C667.982,870.699,687.183,868.4,704.597,863.616z"/>
			<path fill="#FFFFFF" stroke="#FFFFFF" stroke-width="2.3027" stroke-miterlimit="10" d="M431.089,558.59
				c3.437-2.449,17.337-11.108,21.364-9.9c4.425,1.326,10.173,12.124,13.48,15.678c23.114,24.837,54.489,36.768,60.455,30.708
				c5.864-5.956-9.298-11.427-13.111-13.037c-43.432-18.34-76.391-61.85-75.789-110.246c0.565-45.348,26.532-98.127,63.822-125.261
				c8.165-5.941,24.159-8.4,24.152-18.939c-0.007-10.97-10.963-22.446-12.074-33.932c-2.469-25.574,17.146-50.224,0.008-55.653
				c-0.279,0.422-0.511,0.794-0.707,1.127c-9.631,15.772-11.549,44.147-10.161,61.555c0.354,4.451,2.7,9.501,2.728,13.743
				c0.087,13.264-18.652,28.577-30.513,43.21c-14.75-24.373-22.56-41.394-15.196-70.835c6.724-26.882,21.657-23.184,21.186-34.736
				c-12.212,0.058-25.886,13.045-32.107,23.281c-6.062,9.973-3.657,25.604-4.468,36.64c-11.5-0.33-20.632,0.215-31.713,3.134
				c-3.868,1.019-12.849,2.563-19.433,5.574c-1.988,4.724-3.871,9.56-5.636,14.518c4.484,5.296,14.204-2.99,18.12-5.434
				c10.468-6.532,18.61-6.519,30.417-5.551c11.282,0.926,7.108,0.626,9.776,10.347c1.327,4.83,4.704,9.112,7.087,13.438
				c12.839,23.304,14.745,13.995,11.818,23.29c-4.283,13.597-20.064,13.05-31.864,59.739
				c-16.431-20.196-35.244-30.772-60.983-24.528c-0.178,2.151-0.33,4.302-0.455,6.454c5.713,3.13,16.481,2.295,20.473,3.224
				c15.429,3.591,18.299,9.153,22.926,13.509c3.333,3.138,13.584,9.507,14.84,13.482c1.144,3.617-1.488,10.102-1.889,13.687
				c-2.771,24.715,0.352,63.42,17.976,83.18c-12.293,1.577-26.828,10.505-34.888,19.743c-1.321,1.513-3.839,5.721-5.97,10.47
				c2.228,4.833,4.558,9.666,6.985,14.5C418.866,577.425,426.491,561.865,431.089,558.59z"/>
			<path fill="#FFFFFF" stroke="#FFFFFF" stroke-width="2.3027" stroke-miterlimit="10" d="M385.655,485.47
				c-2.747,0.428-5.536,2.054-8.225,4.34c0.985,4.634,2.067,9.269,3.263,13.906C385.277,498.845,407.037,482.14,385.655,485.47z"/>
			<path fill="#FFFFFF" stroke="#FFFFFF" stroke-width="2.3027" stroke-miterlimit="10" d="M835.201,977.385
				c-3.882-9.736-16.224-20.516-15.267-31.196c0.873-9.741,9.588-20.808,13.003-30.306c6.874-19.119,3.802-40.417,3.439-60.319
				c-0.33-18.09-2.891-29.265-6.977-46.153c-11.213-46.354-17.683-38.606-7.325-52.896c19.693-27.172-1.617-67.722-17.755-82.393
				c28.678-30.978,22.457-40.527,22.277-78.688c-0.114-23.724,0.77-47.898-1.31-71.57c-2.59-29.461-30.647-82.714-32.848-88.757
				c21.134-5.122,33.793-42.472,34.383-61.718c1.992-64.985-1.724-58.141-9.51-95.004c-1.517-7.181-2.565-8.146,0.023-11.422
				c-3.675-4.803-7.488-9.451-11.444-13.935c-1.268,3.72-2.535,7.38-2.627,11.024c-0.776,30.74,10.359,34.93,12.142,58.164
				c2.486,32.401,5.767,83.118-29.398,101.209c-2.496-5.518-12.589-15.348-19.502-13.372c0.673,13.587,16.424,29.655,22.271,41.614
				c35.551,72.721,28.194,89.151,28.152,156.7c-0.032,49.03-36.071,72.886-78.286,88.793c-25.348,9.552-36.638,20.26-23.614,21.529
				c4.392,0.428,10.078-4.837,13.869-6.379c5.054-2.056,10.001-3.056,15.257-4.799c27.279-9.051,35.23-17.153,43.432-20.212
				c6.608-2.463,3.619-3.766,9.936-0.254c10.279,5.713,17.418,25.587,18.344,36.497c0.853,10.046-3.647,18.952-6.662,28.401
				c-5.878-6.253-7.136-14.821-16.443-16.957c-2.676-0.614-13.303-1.077-13.31,3.774c-0.005,3.416,15.521,15.6,18.067,19.35
				c4.097,6.034,6.429,12.422,9.577,18.963c23.632,49.1,27.717,104.18,4.843,159.765c-9.016,21.906-26.22,59.427-8.334,51.249
				c4.856-2.22,8.981-14.357,10.059-18.913c16.822,15.5,17.273,33.439,8.101,47.753c4.582,3.688,9.175,7.374,13.779,11.059
				C839.257,1009.657,840.807,991.447,835.201,977.385z"/>
			<path fill="#FFFFFF" stroke="#FFFFFF" stroke-width="2.3027" stroke-miterlimit="10" d="M1271.683,270.324
				c-3.82-4.939-7.836-9.706-12.042-14.298c-1.686,3.946-4.834,11.572-4.829,12.815
				C1254.856,278.499,1263.964,274.305,1271.683,270.324z"/>
			<path fill="#FFFFFF" stroke="#FFFFFF" stroke-width="2.3027" stroke-miterlimit="10" d="M1089.827,235.323
				c-6.911,5.464-27.487,16.037-36.416,15.468c-4.987-0.318-19.232-18.697-23.912-15.171c-6.947,5.233,12.022,24.256,13.938,28.033
				c3.589,7.08,4.46,18.946,10.432,24.374c15.274,13.882,4.317-22.668,2.522-27.788c15.094-1.068,28.893-0.685,41.701-10.475
				c5.781-4.42,7.326-9.221,13.306-10.676c5.711-1.388,36.041,7.123,41.109-12.419c2.955-11.395-2.28-7.642-10.764-5.165
				c-9.314,2.718-18.742,3.356-28.435,4.176c2.125-11.362,2.014-28.194-1.134-39.389c-0.661-2.348-2.025-5.222-3.899-8.286
				c-6.211-1.053-12.527-1.938-18.939-2.664c3.615,4.405,6.787,9.454,8.748,16.6
				C1102.234,207.059,1103.275,224.691,1089.827,235.323z"/>
			<path fill="#FFFFFF" stroke="#FFFFFF" stroke-width="2.3027" stroke-miterlimit="10" d="M1248.485,311.993
				c-0.812-11.036,1.594-26.668-4.468-36.64c-6.22-10.235-19.894-23.222-32.107-23.281c-0.468,11.496,14.482,7.932,21.186,34.736
				c7.364,29.44-0.446,46.461-15.196,70.835c-11.859-14.632-30.602-29.947-30.513-43.21c0.028-4.242,2.373-9.292,2.728-13.743
				c1.385-17.404-0.53-45.77-10.156-61.545c-0.197-0.335-0.432-0.711-0.713-1.137c-12.008,3.803-5.495,21.315-3.261,28.882
				c11.335,38.408-8.794,42.909-8.805,60.703c-0.007,10.54,15.987,12.998,24.152,18.939c37.29,27.134,63.258,79.912,63.822,125.261
				c0.602,48.396-32.357,91.907-75.789,110.246c-3.812,1.61-18.975,7.08-13.111,13.037c6.015,6.11,37.546-6.09,60.456-30.708
				c3.307-3.553,9.055-14.351,13.48-15.678c4.027-1.208,17.927,7.452,21.364,9.9c4.362,3.107,11.45,17.274,18.248,24.989
				c2.5-5.081,4.898-10.155,7.19-15.222c-1.906-3.937-3.939-7.252-5.079-8.559c-8.061-9.238-22.595-18.165-34.888-19.743
				c17.624-19.76,20.748-58.464,17.976-83.18c-0.401-3.585-3.033-10.07-1.889-13.687c1.256-3.976,11.506-10.345,14.84-13.482
				c4.609-4.339,7.5-9.919,22.925-13.509c4.045-0.941,15.049-0.071,20.7-3.351c-0.073-2.08-0.177-4.157-0.298-6.232
				c-25.937-6.444-44.855,4.137-61.367,24.434c-11.714-46.36-27.673-46.434-31.864-59.739c-2.927-9.296-1.016,0.01,11.818-23.29
				c2.382-4.326,5.76-8.608,7.087-13.438c2.668-9.72-1.505-9.421,9.776-10.347c11.808-0.969,19.95-0.981,30.418,5.551
				c4.251,2.652,15.338,12.191,19.147,3.77c-1.458-4.017-3.018-7.962-4.66-11.845c-6.625-3.687-17.157-5.455-21.436-6.583
				C1269.116,312.208,1259.985,311.663,1248.485,311.993z"/>
			<path fill="#FFFFFF" stroke="#FFFFFF" stroke-width="2.3027" stroke-miterlimit="10" d="M372.31,457.447
				c0.364,3.552,0.796,7.106,1.292,10.66c0.362-0.067,0.712-0.173,1.043-0.333C381.131,464.631,375.732,460.249,372.31,457.447z"/>
			<path fill="#FFFFFF" stroke="#FFFFFF" stroke-width="2.3027" stroke-miterlimit="10" d="M1041.802,215.93
				c0.619-9.126-20.279-11.672-25.982-13.512c-20.179-6.508-36.524-9.354-49.961-9.956c-7.375,3.265-14.501,6.919-21.379,10.928
				C991.919,192.327,1011.707,220.834,1041.802,215.93z"/>
			<path fill="#FFFFFF" stroke="#FFFFFF" stroke-width="2.3027" stroke-miterlimit="10" d="M1310.761,502.529
				c1.209-4.551,2.319-9.093,3.334-13.626c-2.339-1.803-4.736-3.066-7.103-3.434
				C1287.108,482.373,1304.535,496.604,1310.761,502.529z"/>
			<path fill="#FFFFFF" stroke="#FFFFFF" stroke-width="2.3027" stroke-miterlimit="10" d="M1318.002,467.773
				c0.035,0.017,0.072,0.029,0.108,0.045c0.505-3.224,0.96-6.444,1.361-9.658C1316.116,460.954,1312.044,464.886,1318.002,467.773z"
				/>
			<path fill="#FFFFFF" stroke="#FFFFFF" stroke-width="2.3027" stroke-miterlimit="10" d="M957.887,832.869
				c-3.96-3.399-12.918-15.651-18.77-13.386c-20.348,7.875,35.267,35.643,36.36,37.069c2.48,3.237,3.252,19.127,2.045,24.479
				c-3.951,17.518-43.983,23.765-29.445,33.392c6.676,4.421,25.802-0.591,31.244-5.332c13.404-11.679,10.559-29.971,8.726-45.475
				c18.732,5.147,39.533,7.42,60.141,6.11c5.275-4.863,10.496-9.731,15.662-14.605
				C1027.791,862.963,985.045,856.185,957.887,832.869z"/>
			<path fill="#FFFFFF" stroke="#FFFFFF" stroke-width="2.3027" stroke-miterlimit="10" d="M579.334,225.681
				c-9.693-0.82-19.121-1.458-28.435-4.176c-8.483-2.476-13.719-6.23-10.764,5.165c5.073,19.559,35.205,10.984,41.109,12.42
				c5.979,1.455,7.525,6.256,13.306,10.676c12.808,9.79,26.607,9.407,41.701,10.475c-1.794,5.12-12.752,41.67,2.522,27.788
				c5.973-5.428,6.843-17.294,10.432-24.374c1.916-3.777,20.885-22.799,13.938-28.032c-4.68-3.526-18.925,14.853-23.912,15.171
				c-8.929,0.569-29.505-10.004-36.416-15.468c-13.449-10.633-12.407-28.265-8.259-43.383c1.999-7.288,5.258-12.396,8.962-16.863
				c-0.319,0.02-0.635,0.034-0.955,0.055c-5.869,0.387-11.69,0.958-17.459,1.692c-2.256,3.503-3.892,6.817-4.637,9.464
				C577.32,197.487,577.209,214.318,579.334,225.681z"/>
			<path fill="#FFFFFF" stroke="#FFFFFF" stroke-width="2.3027" stroke-miterlimit="10" d="M650.843,215.931
				c28.773,4.689,48.112-21.176,91.226-13.782c-6.413-3.424-13.038-6.56-19.883-9.384c-12.526,0.987-27.429,3.871-45.361,9.654
				C671.122,204.258,650.224,206.805,650.843,215.931z"/>
			<path fill="#FFFFFF" stroke="#FFFFFF" stroke-width="2.3027" stroke-miterlimit="10" d="M916.526,499.879
				c8.383,1.064,19.817-20.481,42.363-25.574c7.103-1.605,48.324,5.648,49.85,1.517c-4.065-8.911-10.672-4.515-17.061-8.364
				c-5.843-3.52-3.05-1.718-5.172-8.861c-5.923-19.943-8.979-31.556-3.816-51.535c8.441-32.654,19.187-25.232,29.96-26.181
				c10.783-0.949,20.211-6.579,15.625-20.397c-14.604,0.902-17.777,8.755-42.422-7.612c-8.506-5.648-20.613-19.391-32.151-18.181
				c-16.346,2.034,6.245,12.321,9.206,14.548c4.593,3.459,8.273,9.379,12.19,13.839c1.867,2.125,9.796,9.148,10.058,11.952
				c0.391,4.201-10.036,15.521-11.903,19.628c-10.498,23.104-8.588,49.515,3.814,70.27c-14.494,0.545-26.947-0.492-40.445,6.6
				C931.309,474.319,900.17,497.804,916.526,499.879z"/>
			<path fill="#FFFFFF" stroke="#FFFFFF" stroke-width="2.3027" stroke-miterlimit="10" d="M437.835,268.842
				c0.006-1.272-3.296-9.24-4.948-13.093c-4.052,4.696-7.952,9.591-11.679,14.701C428.873,274.392,437.79,278.399,437.835,268.842z"
				/>
			<path fill="#FFFFFF" stroke="#FFFFFF" stroke-width="2.3027" stroke-miterlimit="10" d="M1076.208,774.747
				c-14.487,4.76-34.6,10.428-49.929,6.718c14.497-16.224,11.152-44.806,5.748-54.255c-2.222-3.885-19.509-14.754-16.419-3.041
				c2.122,10.8,7.764,18.038,5.647,29.411c-4.626,24.883-17.308,19.149-21.506,18.641c-34.6-4.187-27.211,9.798-42.416,15.171
				c-3.24,1.145-42.502,8.538-21.776,14.249c10.692,2.946,31.298-6.918,40.549-11.152c7.116-3.257,10.385-5.857,17.872-4.667
				c4.762,0.757,13.264,5.979,14.102,6.256c8.29,2.746,17.64,1.817,26.216,1.448c22.905-0.988,42.452-1.513,61.723-14.498
				c11.608-7.821,25.721-14.371,20.361-31.648C1103.672,748.97,1103.973,765.629,1076.208,774.747z"/>
			<path fill="#FFFFFF" stroke="#FFFFFF" stroke-width="2.3027" stroke-miterlimit="10" d="M1012.948,293.154
				c18.412,14.392,28.72,37.247,38.844,57.553c7.585,15.212,18.213,24.243,29.369,36.349c12.607,13.68,17.466,40.907,2.171,64.125
				c-5.966,9.056-11.662,13.138-5.633,23.8c6.884,12.17,13.478,19.17,6.793,34.235c-7.516,16.935-26.78,23.596-43.322,25.077
				c-19.482,1.746-14.96,0.748-23.804-11.725c-9.572-13.5-23.493-18.417-27.218-15.532c-9.694,7.507,17.205,14.212,23.871,38.505
				c2.857,10.41,0.021,20.346,0.822,30.945c-20.685-0.567-33.688,7.138-41.614,27.262c-24.778-8.804-67.258-19.394-77.757,16.625
				c-6.423,22.036,9.669,11.782,17.521,1.689c29.743-38.235,48.117-1.11,61.536-1.705c14.476-0.642,19.043-48.877,63.255-27.386
				c19.629,9.54,35.283,33.152,38.77,54.489c2.195,13.431-0.752,31.834-5.224,44.616c-1.193,3.409-12.612,19.082-10.507,22.512
				c3.928,6.402,15.615-0.498,18.127-4.247c2.479-3.699,2.53-8.843,3.581-13.044c1.182-4.719,2.584-8.965,3.383-13.856
				c0.833-5.104-1.194-18.527,1.731-21.872c3.044-3.482,37.149-13.818,71.923,6.661c6.793,4.001,14.112,14.575,21.792,9.082
				c8.475-6.062,6.558-31.214,29.845-42.498c11.769-5.703,24.957-3.611,36.661-9.255c-6.973-9.786-63.432-7.9-74.005,37.688
				c-58.478-24.895-62.847-17.14-85.958-11.854c-0.871-35.323-29.098-67.161-63.937-73.313c3.224-11.275,2.311-21.446,2.589-33.392
				c69.957,11.691,96.802-54.448,60.102-81.185c12.925-12.781,29.035-42.299,16.017-59.709c18.214-0.759,101.36-3.544,71.921-41.124
				c-12.121,8.806-16.953,18.334-32.735,23.515c-24.309,7.98-40.241,3.07-59.423-14.025
				c-37.126-33.09-35.606-101.948-113.408-101.948c23.239-2.42-21.882-51.386-20.713-32.98c1.448,6.395,6.195,10.967,8.577,16.896
				c2.038,5.072,2.082,10.953,4.531,15.828c-6.215-0.263-25.326-3.668-30.264,2.932
				C918.607,289.664,977.465,265.415,1012.948,293.154z"/>
			<path fill="#FFFFFF" stroke="#FFFFFF" stroke-width="2.3027" stroke-miterlimit="10" d="M875.333,278.386
				c-7.624,36.091-11.546,28.573-9.51,95.004c0.59,19.245,13.249,56.596,34.383,61.718c-2.97,8.154-8.149,16.48-11.608,24.611
				c-25.869,60.776-22.182,59.055-22.55,135.716c-0.18,37.805-6.52,47.585,22.277,78.688
				c-16.574,15.068-37.162,55.613-17.754,82.393c6.139,8.469,6.484,9.026,2.927,18.79c-22.29,61.208-20.867,120.894-13.79,140.578
				c3.415,9.498,12.13,20.565,13.003,30.306c0.957,10.679-11.385,21.459-15.267,31.196c-5.457,13.686-3.94,31.788-0.292,50.114
				c4.62-3.472,9.223-6.952,13.808-10.438c-9.256-14.341-8.837-32.349,8.023-47.886c1.078,4.557,5.203,16.693,10.059,18.913
				c17.19,7.86,2.11-25.872-8.334-51.249c-22.935-55.733-18.716-110.819,4.843-159.765c3.149-6.542,5.48-12.929,9.577-18.963
				c2.546-3.75,18.071-15.934,18.067-19.35c-0.007-4.851-10.633-4.388-13.31-3.774c-9.307,2.136-10.565,10.704-16.443,16.957
				c-3.015-9.451-7.516-18.357-6.662-28.402c0.927-10.911,8.065-30.785,18.344-36.497c6.317-3.512,3.329-2.209,9.936,0.254
				c8.207,3.06,16.142,11.157,43.432,20.212c5.256,1.744,10.203,2.744,15.257,4.799c3.792,1.541,9.477,6.807,13.869,6.379
				c12.179-1.187,3.485-11.321-23.614-21.529c-42.216-15.907-78.255-39.762-78.286-88.793c-0.042-67.48-7.402-83.974,28.152-156.7
				c5.846-11.959,21.597-28.027,22.271-41.614c-6.913-1.977-17.006,7.854-19.502,13.372
				c-35.164-18.091-31.884-68.807-29.398-101.209c1.805-23.531,12.921-27.286,12.142-58.164c-0.103-4.067-1.663-8.152-3.057-12.317
				c-4.068,4.627-7.988,9.408-11.754,14.339C878.074,270.123,876.979,270.594,875.333,278.386z"/>
		</g>
	</g>
</g>
</svg>
