<?xml version="1.0" encoding="UTF-8" standalone="no"?>
<svg id="svg4177" xmlns:rdf="http://www.w3.org/1999/02/22-rdf-syntax-ns#" xmlns="http://www.w3.org/2000/svg" height="288.94mm" width="288.92mm" version="1.1" xmlns:cc="http://creativecommons.org/ns#" xmlns:xlink="http://www.w3.org/1999/xlink" viewBox="0 0 1023.7344 1023.8032" xmlns:dc="http://purl.org/dc/elements/1.1/">
<defs id="defs4179">
<radialGradient id="radialGradient4777" gradientUnits="userSpaceOnUse" cy="572.36" cx="1882.9" gradientTransform="matrix(2.3704 .032523 -.033253 2.4236 -2561.2 -876.04)" r="255.93">
<stop id="stop9" stop-color="#a28952" offset="0"/>
<stop id="stop11" stop-color="#1a1917" offset="1"/>
</radialGradient>
</defs>
<g id="layer1" transform="translate(-1371 -60.461)">
<path id="path4773" d="m1882.9 60.462c-2.5512 0-5.1012 0.0704-7.6522 0.0704-17.008 0.70866-17.505 0.77912-35.363 2.5508-2.5512 5.5984-2.551 5.5961-5.0312 16.297 5.811-1.4173 5.8094-1.4147 11.691-2.832 5.3858-1.2756 5.387-1.2752 10.844-2.5508 1.1338-6.378 1.134-6.3808 1.9844-10.633 19.346-1.7716 19.344-1.7684 38.266-2.4062 0-0.2126 0-0.2143-0.4962-0.28516-4.6772-0.1418-9.4942-0.21094-14.242-0.21094zm-17.93 0.35156c-15.591 0.49606-31.038 1.7747-46.203 3.6172 9.3544-0.92126 9.495-0.9247 19.629-1.5625 13.677-1.3464 14.173-1.346 26.574-2.0547zm40.891 0.21484c0.4252 0.28346 0.4966 0.28132 0.9218 1.2734 10.134 1.2047 10.132 1.2066 20.762 2.7656-1.3464-2.126-1.3438-2.1267-2.832-2.9062-6.2362-0.49606-12.545-0.84936-18.852-1.1328zm-13.891 0.84766c-9.7086 0.6378-9.71 0.64124-19.844 1.5625 30.402 3.6142 30.403 3.6109 62.789 9.918 28.134-1.559 28.136-1.5568 54.285-0.28124-10.913-2.622-10.914-2.6218-22.465-5.0313-16.866-0.99212-16.868-0.99328-34.797-0.85156-20.126-3.189-20.126-3.1904-39.969-5.3164zm39.402 0.85156c1.4172 0.77952 1.4152 0.78082 2.7616 2.8359 4.6064 0 4.6086-0.0011 9.2148 0.1406 5.1732 0.2126 5.1716 0.21374 9.211 0.35546-0.9212-0.70866-0.918-0.71096-2.4062-1.207-6.2362-0.77954-12.474-1.4872-18.781-2.125zm-97.582 0.85156c-12.756 0.8504-12.756 0.84886-24.449 2.1953-10.205 1.4173-20.27 3.191-30.262 5.2461v0.0704c16.157-2.5512 16.157-2.5514 33.519-3.9688-2.9764 4.1811-2.9756 4.1812-5.5976 10.488 10.205 0.92126 10.205 0.91918 20.906 2.2656 2.9056-10.701 2.9064-10.698 5.8828-16.297zm34.297 0.77734c-0.4252 2.5512-0.4226 2.5532-0.8478 5.7422 20.551 3.1181 20.549 3.1191 41.809 7.3711 0.9922 9.2835 0.994 9.282 1.7736 20.691 12.047 3.8268 12.048 3.8273 23.953 7.9375-1.9134-18.354-1.913-18.355-4.5352-31.891-31.819-6.2362-31.822-6.2374-62.152-9.8516zm90.215 1.6328 0.9922 0.28126c19.63 3.685 19.63 3.685 40.039 8.5039 4.252 3.9685 4.252 3.9686 8.504 9.9922 11.409 4.0394 11.407 4.0415 22.746 8.2227-7.5826-10.063-7.5808-10.066-15.73-15.168-4.8898-1.3465-4.891-1.3449-9.8516-2.6914-15.307-3.7559-30.896-6.802-46.699-9.1406zm-157.25 3.0469c-9.2126 0.70866-9.2098 0.70654-18.351 1.7695-19.843 4.9606-19.843 4.9602-40.395 11.055-12.118 2.3386-12.118 2.3417-23.953 5.6016-7.937 2.6929-15.803 5.5973-23.527 8.6445 20.126-5.811 20.124-5.8127 42.73-8.7891 31.89-10.346 31.89-10.344 63.496-18.281zm1.6328 0.49608c-31.606 8.0079-31.607 8.0085-63.922 18.426-7.0158 12.756-7.016 12.756-14.457 30.543 6.1654-2.7638 6.1662-2.7641 12.402-5.457 5.74-2.5512 5.7398-2.5537 12.047-5.1758 3.9686-10.984 3.9662-10.982 7.793-19.84 14.811-4.8898 14.813-4.8909 29.766-9.3555 3.4016-0.99212 3.3992-0.9928 6.8008-1.9141 3.4016-0.92126 3.4026-0.91914 6.875-1.7695 1.559-3.1181 1.5614-3.1184 2.6952-5.457zm-31.609 3.1875c-6.5198 1.4882-12.965 3.0492-19.414 4.75-1.9134 0.77952-1.9152 0.77964-4.2538 1.9844 5.4566-1.5591 5.4578-1.5587 10.844-3.0469 5.4566-1.4882 5.4572-1.49 10.418-2.7656 1.4174-0.49606 1.4142-0.49668 2.4064-0.92188zm194.62 0.71094c-6.9184 0.0532-14.091 0.45848-28.441 1.2734 2.9054 13.535 2.9052 13.536 5.5272 31.891 5.3858-1.4173 5.3838-1.4164 11.266-2.6211 5.5276-1.3465 5.5272-1.3461 11.055-2.5508-2.5512-11.197-2.551-11.198-5.0312-20.41 13.323-0.92126 13.325-0.9219 25.656-1.418 3.118 0 3.1162 0.00056 5.7382-0.0704l0.4962 0.1406c2.5512 0 2.5504-0.00056 5.1016 0.0704-2.4096-3.0472-2.4098-3.0476-4.465-5.457-13.323-0.60236-19.984-0.9008-26.902-0.84766zm-91.867 0.0704c-21.189 4.6772-21.189 4.6745-42.52 10.344-20.268-2.7638-20.27-2.7607-39.262-4.3906-1.4172 0.4252-1.418 0.42246-2.9062 0.84764-10.063 3.0473-10.063 3.0488-20.055 6.3086 29.339 2.9055 29.338 2.9055 61.016 8.5039 34.157-9.7795 34.157-9.7789 66.543-17.078-11.835-2.4094-11.832-2.4092-22.816-4.5352zm-128.12 5.5977c-6.0946 1.7008-12.121 3.4733-18.145 5.3867 6.9448-1.9134 6.9452-1.9136 13.961-3.4727 2.3386-1.1339 2.341-1.1345 4.1836-1.9141zm275.1 0.28126c8.6458 5.1732 8.6446 5.1769 16.156 15.027 4.6772 0.2126 4.6782 0.20928 8.8594 0.42188 4.181 0.28346 4.182 0.28348 7.8672 0.49608-5.5986-5.6693-5.5998-5.666-11.836-9.4219 3.4016 0.99212 3.403 0.98944 6.3086 1.8398-8.504-2.9055-17.08-5.5978-25.797-8.0781h-0.07c-0.992-0.1418-0.9922-0.1434-1.4882-0.28516zm-121.25 0.5703c-32.74 7.3701-32.738 7.3689-67.32 17.148-1.9134 20.906-1.9158 20.906-4.1836 46.418 6.6616-2.6221 6.6618-2.6246 12.969-5.1758 6.378-2.6221 6.3798-2.6207 12.758-5.1719 0.7796-15.945 0.7768-15.945 1.3438-29.977 22.961-6.5906 22.961-6.5902 45-12.047-0.2834-5.8819-0.283-5.8804-0.5664-11.195zm93.332 2.3359c-0.9922 0-0.9916-0.00054-2.0546 0.0704-8.7874 0.35432-8.7874 0.35774-17.008 1.0664 33.945 11.551 33.943 11.548 68.738 25.438 25.228-1.063 25.229-1.0602 47.48 0.64062-3.685-1.7716-3.682-1.7719-7.3672-3.4726-7.866-3.4724-7.8676-3.4751-15.309-6.6641-14.669-1.3465-14.669-1.3432-30.543-1.4141-21.969-8.3622-21.969-8.3648-43.938-15.664zm-22.891 2.4805c1.559 5.1732 1.5592 5.1733 2.9766 10.984 22.961 8.1496 22.961 8.1524 45.922 17.152 3.756 13.677 3.7564 13.675 7.4414 29.266 12.685 6.1654 12.683 6.1656 25.227 12.473-6.307-24.591-6.3074-24.589-12.969-44.715-34.228-13.606-34.228-13.609-68.598-25.16zm-205.44 4.3242c-2.3386 5.1024-2.3356 5.1036-4.3906 10.844 19.559 2.6929 19.557 2.6894 40.25 6.4453-2.1968 13.961-2.1954 13.962-4.1798 29.766 11.48 3.7559 11.48 3.7575 23.598 7.7969 2.2676-25.512 2.2658-25.512 4.746-46.418-31.181-5.5276-31.181-5.5281-60.023-8.4336zm-32.172 0.35546c-23.102 3.1181-23.101 3.117-43.227 9.1406-4.1102 2.0551-4.1142 2.0537-8.0118 4.6758 1.9842-0.56692 1.9846-0.56754 3.4726-0.92186l0.4962-0.21094c6.5906-1.4173 6.5924-1.4175 13.254-2.4805 5.6694-0.70866 5.67-0.70706 11.41-1.2031-5.315 8.5748-5.3172 8.5738-10.703 19.133 8.7874 0.99212 8.7874 0.99168 18.496 2.0547 7.2992-17.504 7.3008-17.502 14.813-30.188zm320.03 0.21094c3.118 2.0551 3.1184 2.0565 6.4492 4.8203l5.668 2.2656 0.496 0.1406c9.3544 3.9685 9.3572 3.9701 19.137 8.293 7.8662 3.6142 7.8648 3.6158 15.66 7.3008 7.2282 8.2913 7.2286 8.2886 13.961 18.352 11.339 6.3071 11.338 6.3067 22.109 12.543-11.197-16.016-11.197-16.015-23.457-27.637-30.047-14.102-30.047-14.102-60.023-26.078zm1.5586 0.35546c30.402 12.047 30.402 12.045 60.449 26.289 4.252 1.8425 4.2524 1.8422 7.9374 3.543-20.339-10.772-41.598-20.336-63.496-28.344-2.4804-0.70866-2.4812-0.70874-4.8906-1.4883zm-160.23 7.8633c-11.906 3.2599-11.909 3.2614-23.602 6.8047 35.504 11.197 35.505 11.199 72.356 24.734 33.449-9.4252 33.449-9.4257 64.488-16.441-12.472-5.0315-12.471-5.0327-25.156-9.8516-20.622 4.3228-20.624 4.3246-41.742 9.7813-23.598-8.0079-23.596-8.0116-46.344-15.027zm-212.67 3.9688c-6.4488 2.7638-12.826 5.6012-19.133 8.6484-6.5906 3.9685-6.5904 3.9685-13.535 9.4961 5.4566-2.8347 5.4572-2.8355 10.418-5.3867 5.5274-2.6929 5.5276-2.6938 10.984-5.3867 5.386-4.1811 5.3838-4.1821 11.266-7.3711zm17.223 0.42578c-2.622 0.2126-2.6246 0.21488-5.6718 0.71094-5.2442 0.70866-5.2414 0.70764-10.344 1.6289-20.197 9.6378-20.197 9.6374-40.039 20.055-11.055 3.1181-11.056 3.1169-20.836 7.6523-1.3466 0.77952-1.3456 0.77906-2.6212 1.5586-8.2912 5.1024-8.2912 5.1036-16.512 10.348 14.598-6.5905 14.598-6.5901 32.527-10.062 31.536-16.866 31.536-16.867 63.496-31.891zm0.9922 1.0625c-32.386 15.165-32.387 15.166-63.852 31.891-10.984 18.567-10.984 18.566-21.543 41.598 5.6694-3.5433 5.67-3.5426 11.41-7.0859 6.0944-3.7559 6.0924-3.7536 11.762-7.2969 6.0944-14.457 6.0974-14.459 12.617-27.145 21.543-11.268 21.54-11.266 43.438-21.754 3.189-5.4567 3.1916-5.459 6.168-10.207zm65.762 2.0547c-22.748 9.4961-22.749 9.4962-45.922 19.984-18-2.622-18-2.6189-35.008-3.8945-11.48 5.6693-11.478 5.6683-22.816 11.621 25.441 2.6221 25.439 2.6225 54.211 7.9375 36-16.795 35.999-16.796 71.574-31.465-11.197-2.2677-11.197-2.2702-22.039-4.1836zm100.56 2.4102c-0.6378 7.937-0.636 7.9375-0.707 16.441 23.669 7.8661 23.671 7.8655 47.766 16.582 0.7796 18.567 0.7774 18.568 1.2736 38.836 13.535 6.0945 13.534 6.0947 27.141 12.473-1.8426-32.102-1.84-32.102-3.8242-60.094-36.284-13.252-36.286-13.254-71.649-24.238zm200.44 2.7617c-4.9716 0.0622-11.002 0.31232-20.648 0.71094 7.37 20.197 7.3704 20.199 13.961 44.719 5.0316-1.3465 5.031-1.3494 10.063-2.625 5.1024-1.2047 5.1008-1.2021 10.203-2.3359-5.0316-15.165-5.0288-15.165-10.344-28.488 16.937-0.77954 16.936-0.77902 32.172-0.56642-3.6142-5.2441-3.614-5.2442-7.5116-9.9922-14.262-1.1073-19.609-1.5257-27.895-1.4219zm-276.55 1.5625c-36.213 14.74-36.212 14.741-72.567 31.395-5.8818 27-5.883 26.999-11.34 58.109 6.5198-3.5433 6.5194-3.5432 13.039-7.0156 6.874-3.7559 6.8742-3.7569 13.465-7.3711 2.9764-19.701 2.9778-19.699 6.3086-37.77 16.441-7.5118 16.44-7.5138 33.094-14.742 4.2518-1.7717 4.2518-1.7724 8.0078-3.4024 0.07 0 0.07 0.004 0.07 0.0742 3.8266-1.559 3.8288-1.5592 7.2304-2.9766 1.4882-8.4331 1.4866-8.4346 2.6914-16.301zm-134.01 1.5586c-6.3778 3.189-12.756 6.4494-18.992 9.9219l-4.3946 2.6914c5.244-2.126 5.247-2.1251 11.129-4.1094 6.1654-4.8189 6.1634-4.8189 12.258-8.5039zm355.46 2.6914c-31.961 6.7323-31.959 6.7355-65.691 16.09 2.3386 27.992 2.336 27.992 4.3202 60.023 6.378-2.5512 6.3788-2.5543 12.898-5.1055 6.1654-2.6221 6.1656-2.6207 12.473-5.1719-1.7008-20.055-1.7016-20.055-3.8986-38.48 15.378-4.3228 15.38-4.3217 30.262-8.1484 3.5434-0.92126 3.542-0.9225 6.6602-1.8438l0.4258 0.1406c3.118-0.77952 3.1168-0.77962 6.164-1.4883-1.9134-8.3622-1.9124-8.3621-3.6132-16.016zm106.58 1.7031c12.402 11.409 12.402 11.408 24.449 27.637 3.4724 0.1418 3.474 0.1424 6.8046 0.42578 2.9056 0.1418 2.9038 0.1428 5.7384 0.35548-7.8662-9.3543-7.8632-9.3543-16.367-17.008 4.6772 2.0551 4.6754 2.0548 9.211 4.5352-6.5906-4.0394-13.322-7.8657-20.055-11.551-4.6062-2.1969-4.608-2.1977-9.7812-4.3945zm-17.289 8.6445c-8.2914 0.2126-8.2936 0.21376-16.727 0.85156 34.016 18.071 34.015 18.071 67.535 37.984 19.843-1.063 19.843-1.0641 36 0.63672-10.346-7.2992-10.347-7.299-20.48-14.031-11.197-1.4173-11.197-1.4157-23.953-1.6992-20.976-12.26-20.974-12.262-42.375-23.742zm-19.633 2.6211c2.9764 7.4409 2.9762 7.4408 6.0236 15.52 2.9764 1.5591 2.9772 1.5626 5.8828 3.0508 0.496 0.1418 0.4954 0.1418 0.5664 0 10.772 5.9528 10.775 5.9513 21.121 11.691 9.071 5.1732 9.0698 5.1722 17.645 10.133 5.7402 17.079 5.7386 17.08 11.195 35.789 12.047 7.8661 12.049 7.8654 23.742 15.59-9-29.126-9.0016-29.127-18.781-54.426-33.449-19.559-33.45-19.56-67.395-37.348zm-208.34 3.4023c-23.953 9.3543-23.955 9.3539-48.191 19.559-23.102-7.7244-23.1-7.7214-45.777-14.383-1.2048 0.56692-1.2054 0.56478-2.9062 1.2734-11.551 5.1024-11.551 5.1013-22.535 10.133 34.299 10.843 34.299 10.846 70.512 24.098 38.268-16.512 38.269-16.512 75.332-30.969-13.252-5.0315-13.253-5.0338-26.434-9.7109zm275.67 2.1992c28.346 18.354 28.345 18.352 54.707 37.84 0.992 0.6378 1.2058 0.85214 1.8436 1.2773-16.016-12.827-32.739-24.805-50.172-35.789-3.118-1.7717-3.119-1.7691-6.3788-3.3281zm-0.6368 0.0704c5.1024 4.4646 5.1034 4.464 9.3554 9.0703 18.78 12.189 18.779 12.188 37.063 25.086 9.0708 11.48 9.0692 11.479 17.715 24.66 9.4252 7.5118 9.4242 7.5117 19.133 15.52-14.031-20.622-14.028-20.622-28.91-36.992-26.433-19.346-26.434-19.344-54.355-37.344zm-491.18 1.9844c-3.4016 7.1575-3.3992 7.1573-6.8008 15.023 2.3386 0.2126 2.3372 0.21262 4.6758 0.4961l0.3554-0.28516c7.7954 1.4173 7.7952 1.4175 16.016 2.9766 6.9448 1.3465 6.9462 1.3477 14.316 2.8359-4.3938 17.575-4.3938 17.574-9 37.062 10.701 3.685 10.699 3.6838 21.684 7.6523 6.0236-31.11 6.0232-31.109 12.543-58.18-28.276-5.1732-28.277-5.1726-53.789-7.582zm-26.43 0.4961c-17.929 3.5433-17.932 3.5406-32.106 9.8477-5.244 4.1102-5.2418 4.1136-10.273 8.5781 9.6378-3.1181 9.638-3.1201 20.977-5.2461-8.0078 12.26-8.01 12.26-15.238 26.008 7.2284 0.77952 7.2316 0.7791 14.602 2.0547 10.559-22.748 10.559-22.746 22.039-41.242zm379.7 2.7617-2.9766 0.71094c-9.6378 2.8346-9.6384 2.8322-19.914 5.8086 38.197 17.929 38.199 17.929 76.184 37.488 30.472-9.1417 30.47-9.1394 57.824-15.801-4.0394-2.3386-4.0394-2.3394-8.504-4.8906-8.6456-4.748-8.6466-4.7503-16.867-9.2148-18 4.1811-17.998 4.1817-37.203 9.4258-24.378-12.189-24.378-12.189-48.543-23.527zm-107.6 6.12c-37.701 14.315-37.7 14.318-76.109 30.617-1.7008 34.228-1.6994 34.228-3.1876 72.07 7.0866-3.5433 7.0848-3.5426 14.242-7.0859 7.0158-3.685 7.0178-3.6872 13.75-7.2305 0.6378-24.024 0.6352-24.023 1.3438-46.559 25.299-10.63 25.301-10.63 50.246-20.551 0.142-10.843 0.14-10.844-0.2852-21.262zm80.574 4.0391c1.063 10.205 1.0648 10.205 2.2694 20.977 25.228 11.906 25.228 11.905 50.598 24.52 2.7638 21.968 2.763 21.971 5.5976 45.641 13.394 7.6535 13.395 7.6517 27.285 15.73-4.8898-36.921-4.8922-36.92-10.207-70.156-37.63-19.134-37.63-19.136-75.543-36.711zm-390.9 0.9922c-6.6614 4.6063-13.181 9.3558-19.559 14.316-7.2992 6.0945-7.3694 6.1662-14.598 13.395 4.4646-3.4724 4.4664-3.4746 9.2852-7.2305 4.4646-3.4016 4.4652-3.4009 9.4258-7.0859 7.37-7.0866 7.3666-7.0874 15.445-13.395zm156.19 2.4102c-2.126 10.276-2.1262 10.277-3.4728 20.836 22.465 7.5827 22.462 7.5826 46.274 16.016-1.8426 22.394-1.8422 22.395-3.543 46.277 13.394 6.0236 13.397 6.0205 26.578 12.398 1.9844-37.843 1.9824-37.843 3.754-72-35.717-12.968-35.716-12.968-69.59-23.527zm-149.67 2.5508c-6.0946 0.99212-6.0952 0.99394-11.41 2.2695-18.142 13.11-18.143 13.109-35.363 26.645-5.2442 2.3386-5.3162 2.4114-9.3556 5.2461-4.9606 4.4646-9.9198 8.9986-14.668 13.676 5.9528-3.8976 6.0246-3.8969 14.387-6.0937 27.425-21.543 27.426-21.545 56.41-41.742zm0 1.7031c-28.984 20.126-28.984 20.126-56.481 41.457-13.464 22.961-13.467 22.958-25.656 49.391 4.819-4.1811 4.8212-4.1783 9.711-8.3594 4.8898-4.1102 4.8876-4.113 9.7774-8.1523 7.7244-17.22 7.7264-17.219 15.734-32.738 12.756-9.6378 12.755-9.6362 26.078-19.203 2.9056-1.9842 2.9042-1.9862 6.164-4.2539 3.26-2.1968 3.2626-2.1954 6.168-4.1797 4.4646-7.441 4.4646-7.4413 8.504-13.961zm53.715 0.4961c-21.968 13.11-21.968 13.111-43.582 26.859-14.74-2.3386-14.741-2.3388-27.922-3.4727-1.2048 0.77954-1.205 0.77852-2.4806 1.6289-9.2126 6.6614-9.2126 6.66-18 13.18 19.276 2.4803 19.275 2.4802 42.52 7.5117 33.945-21.543 33.945-21.544 69.023-41.883-3.4724-0.6378-3.4722-0.6379-6.5196-1.4883-6.9448-1.063-6.9444-1.0603-13.039-2.3359zm21.188 6.9453c-35.433 20.197-35.431 20.196-69.731 41.598-8.7164 31.394-8.717 31.393-16.441 66.117 5.9528-4.0394 5.9546-4.0399 12.262-8.4336 6.1654-4.3228 6.1644-4.32 12.117-8.3594 4.6772-22.323 4.6754-22.326 9.707-43.16 23.173-14.032 23.173-14.03 46.984-27.637 2.5512-10.346 2.5504-10.345 5.1016-20.125zm497.1 2.5547c-3.8094 0.0548-8.4904 0.3045-15.984 0.70312 9.9212 25.016 9.9186 25.018 19.344 54.215 4.1102-1.4173 4.1124-1.4197 8.2226-2.6953 4.1102-1.2047 4.1096-1.2026 8.0782-2.2656-6.5906-18-6.5914-18.002-13.395-34.301 9.0708-0.56692 9.0714-0.56754 16.937-0.92188 1.8426 0 1.8412 0.002 3.6836 0.1446 1.7718 0.1418 1.7714 0.1384 3.543 0.42188-4.6772-7.0158-4.6754-7.0138-9.707-13.746-10.453-1.1959-14.374-1.646-20.723-1.5547zm-604.04 2.1914c-6.307 4.9606-12.472 10.064-18.496 15.309 2.4802-1.7717 2.4828-1.7713 5.6718-3.543 6.2362-6.0945 6.2336-6.0963 12.824-11.766zm557.93 2.2695c-27.496 6.6614-27.496 6.6596-58.039 15.73 5.3858 33.094 5.387 33.096 10.348 69.805 5.9528-2.5512 5.953-2.552 11.977-4.8906 5.4568-2.8346 5.4546-2.8327 11.266-5.2422-3.7558-23.032-3.7558-23.032-7.5116-44.434 19.63-6.1654 19.63-6.1655 38.48-10.984-3.189-10.205-3.1888-10.205-6.5196-19.984zm81.711 2.9063c15.024 16.157 15.022 16.157 29.266 36.566 2.0552 0 2.0548-0.002 4.0392 0.21094 1.9134 0.2126 1.9158 0.21208 3.6874 0.5664-9.496-12.118-9.4978-12.119-19.773-22.891l0.711 0.57032c-4.9608-4.3937-9.9212-8.7168-15.024-12.969-1.6298-1.2047-1.6306-1.2043-2.9062-2.0547zm-310.75 4.1797c-13.323 5.5984-13.321 5.5991-26.715 11.41 39.685 17.717 39.686 17.714 80.363 37.273 37.417-16.37 37.417-16.369 73.063-30.684-14.032-7.2283-14.032-7.2275-27.922-14.102-23.315 9.2835-23.317 9.2836-47.199 19.488-25.866-12.047-25.865-12.048-51.59-23.387zm-144.78 5.7383c-25.016 13.252-25.017 13.255-49.82 27.074-21.26-7.5827-21.26-7.5836-41.031-14.387-12.756 7.5118-12.755 7.5116-25.086 15.023 30.402 10.701 30.402 10.698 63.496 23.809 38.976-21.756 38.976-21.756 78.094-42.023-13.039-4.8898-13.038-4.8898-25.652-9.4961zm450.07 3.1211c-0.7086 0-0.7094-0.00056-1.418 0.0704-5.315 0.28346-5.3168 0.28238-11.269 0.63672 30.401 22.606 30.404 22.606 58.68 45.992 12.472-1.2047 12.47-1.203 20.762 0.28516-2.4096-2.6221-2.4064-2.6241-4.8868-5.2461-5.7402-5.811-5.7426-5.8095-11.199-11.195-6.0946-1.1339-6.0954-1.1362-13.891-1.207-17.787-14.74-17.785-14.738-36.777-29.336zm-14.031 3.1172c3.8976 9.0709 3.8958 9.0698 7.7226 18.637 19.913 14.457 19.914 14.455 39.402 29.691 6.874 19.063 6.876 19.067 13.254 39.547 10.063 8.7165 10.061 8.7137 19.77 17.359-10.346-31.819-10.344-31.818-21.754-60.094-28.346-23.102-28.347-23.101-58.394-45.141zm-323.08 4.3945c-0.07 12.614-0.072 12.613-0.3554 25.652 26.079 11.764 26.077 11.762 52.723 24.164 0.496 26.008 0.4978 26.009 0.7812 53.293 14.528 7.7953 14.528 7.7935 28.984 15.73-1.2756-42.732-1.2774-42.732-2.7656-82.488-39.968-18.992-39.966-18.989-79.367-36.352zm368.5 1.8398c5.6692 5.8819 5.6688 5.8849 11.055 12.121 2.1968 2.126 2.1966 2.1229 4.039 3.8945 0-0.0708 0.0006-0.0692 0.4258 0.28516 6.874 6.874 6.8728 6.8754 13.676 13.82 5.2442 5.5984 5.2426 5.5969 10.699 11.691 9.6378 13.252 9.6408 13.253 19.137 28.418 6.874 8.2205 6.8738 8.2193 13.535 16.652-9.9214-16.087-9.922-16.157-20.41-30.543-11.906-15.024-24.66-29.339-38.195-42.945-6.5196-6.378-6.8034-6.6623-13.961-13.395zm-452.91 1.4883c-39.472 19.984-39.473 19.985-78.875 41.457-4.4644 38.693-4.4634 38.695-8.1484 80.293 6.8032-4.0394 6.8008-4.041 13.816-8.293 6.945-4.252 6.9452-4.2514 13.961-8.5742 2.1968-26.717 2.1966-26.715 4.5352-52.156 18.071-9.6378 18.074-9.6384 36.074-18.922 4.181-2.2677 4.1782-2.268 8.3594-4.4649 0 0.0708-0.0006 0.0698 0.07 0.1406l8.2226-4.1094c0.7796-12.827 0.7796-12.828 1.9844-25.371zm-223.44 1.9844c-4.5354 9-4.5376 9.0028-8.7186 18.145 12.827 2.4094 12.828 2.4076 27.285 5.7383-6.2362 20.339-6.2358 20.338-11.551 41.598 8.5038 3.8976 8.5038 3.8987 17.504 7.8672 7.937-34.512 7.9386-34.511 16.797-65.621-22.464-5.1732-22.466-5.1754-41.316-7.7266zm-18.141 0.92188c-8.2912 2.2677-8.2928 2.3406-14.316 6.2383-4.748 4.748-9.4952 9.637-14.102 14.598l0.922-0.85158 0.3516-0.35546c1.8424-1.1339 1.8438-1.1318 4.3242-2.2656 2.2676-0.6378 2.2668-0.63844 5.1016-1.418-9 14.457-8.9984 14.458-17.715 30.828 4.6772 0.70866 4.6778 0.70712 9.4258 2.1953 12.331-26.291 12.331-26.292 26.008-48.969zm590.17 0.0704c-9.8504 3.0473-9.8494 3.0482-20.125 6.3789 36.921 22.748 36.918 22.749 72.351 46.348 24.732-9 24.735-9.0004 45.641-15.945-10.984-8.5748-10.984-8.5759-22.039-16.867-14.102 4.3937-14.102 4.3932-30.047 9.5664-22.394-14.811-22.395-14.811-45.781-29.48zm-101.62 0.35548c-36 14.032-36 14.031-74.055 30.047 1.7008 39.756 1.6976 39.757 2.9022 82.418 7.1576-3.4724 7.1574-3.4723 14.031-7.0156 6.874-3.685 6.877-3.6866 13.609-7.3008-1.134-27-1.1368-26.997-2.625-52.863 17.15-7.2284 17.152-7.2309 33.734-14.176 4.1104-1.5591 4.1108-1.5576 7.9376-3.1875 3.7558-1.3465 3.7542-1.3478 7.2266-2.8359-1.2756-12.756-1.2736-12.755-2.7618-25.086zm78.449 10.203c1.9844 11.764 1.9834 11.766 4.1094 24.168 3.4724 2.0551 3.473 2.0537 6.9454 4.1797 0.142-0.2126 0.14-0.21374 0.2108-0.35548 11.41 7.0866 11.411 7.0881 22.75 14.316 9.4252 5.9527 9.4254 5.9507 18.496 11.762 4.181 24.307 4.1816 24.309 7.9374 49.75 12.26 8.5039 12.259 8.5045 24.66 17.434-6.307-39.614-6.309-39.615-13.254-75.898-35.575-23.386-35.572-23.387-71.856-45.355zm-475.09 5.6719c-2.693 11.693-2.6922 11.69-5.1016 23.809 2.4094 1.1339 2.412 1.134 5.1758 1.9844 0.07 0 0.068 0.002 0.3516-0.21094 9.496 3.6142 9.4966 3.6135 18.922 7.582 8.1496 3.2598 8.1484 3.2597 16.652 6.5195-3.4724 25.087-3.469 25.088-6.4454 51.309 12.118 5.9528 12.115 5.9507 24.375 12.258 4.1104-41.598 4.1132-41.598 8.6486-80.078-32.882-12.614-32.885-12.613-62.578-23.172zm-117.57 6.0937-2.2656 0.70704c-2.0552 0.8504-2.0548 0.84992-3.543 1.5586-13.394 14.811-13.396 14.813-26.152 30.191-3.9684 5.1023-7.8652 10.275-11.621 15.52 0.3544-0.28346 0.356-0.28408 1.2774-0.92186 19.63-23.528 19.627-23.527 42.305-47.055zm-0.707 2.125c-22.465 22.961-22.464 22.962-42.59 46.773-14.032 24.945-14.033 24.945-26.363 52.441 3.189-4.0394 3.1884-4.0399 6.5898-8.4336 3.4726-4.3937 3.4724-4.3959 7.0158-8.7188 8.0078-18.213 8.0078-18.212 16.512-35.078 14.032-15.52 14.031-15.519 29.055-30.613 4.8188-8.5039 4.8206-8.505 9.7812-16.371zm36.777 0.71094c-18.85 15.307-18.851 15.303-36.992 30.965-9.8504-2.4094-9.8482-2.4069-17.785-3.8242-8.1496 8.3622-8.1518 8.3621-15.734 16.512 11.126 2.7638 11.127 2.7615 26.363 8.2891 28.347-24.165 28.346-24.165 59.031-48.047-7.441-2.3386-7.442-2.3355-14.883-3.8945zm323.36 6.8711c-26.008 13.181-26.008 13.181-52.512 27.07-25.724-11.906-25.722-11.902-50.809-22.957-1.559 0.8504-1.562 0.84938-3.121 1.6289-12.26 6.5197-12.259 6.5177-24.59 13.25 38.268 17.504 38.267 17.505 78.59 36.852 40.819-21.614 40.819-21.616 81.496-41.812-14.598-7.1575-14.598-7.1572-29.055-14.031zm-307.27 0.35546c-31.181 23.811-31.184 23.811-59.672 47.551-9.7086 33.591-9.7074 33.592-18.141 69.875 4.9606-4.5354 4.9596-4.5354 9.6368-8.5039 5.1732-4.8189 5.176-4.8183 10.137-9.0703 5.2442-23.528 5.2432-23.527 11.125-46.062 13.252-10.63 13.252-10.632 27-21.191 3.26-2.4803 3.2604-2.4779 6.9454-5.3125 3.0472-2.126 3.0444-2.129 6.375-4.6094 3.189-11.551 3.1922-11.55 6.5938-22.676zm-65.695 0.21094c-1.559 1.7717-2.1942 2.4811-3.328 3.8984 1.063-1.3465 2.1942-2.6228 3.328-3.8984zm763.41 3.4141c-2.6574-0.0798-5.7754 0.2026-12.012 0.76954 11.622 28.134 11.624 28.135 22.254 59.883 2.8348-1.4882 2.834-1.4895 5.5978-2.8359 2.6928-1.2756 2.691-1.2763 5.2422-2.4102-7.2992-19.559-7.2996-19.559-14.953-37.488 7.5826-1.063 7.5858-1.0614 13.609-0.70704-5.2442-8.2205-5.2442-8.222-10.488-15.805-4.3936-0.88584-6.5924-1.3265-9.25-1.4063zm-239.35 1.832c-1.4174 0.70866-1.416 0.7065-3.1876 1.2734-11.126 4.9606-11.126 4.9607-22.535 9.9922 41.032 22.606 41.03 22.607 81.707 46.348 34.299-16.299 34.3-16.299 65.906-30.473l-8.7852-5.668c-9.2834-5.7401-9.2834-5.7414-18.496-11.34-20.693 9.2126-20.694 9.2132-42.379 19.418-26.079-15.024-26.081-15.023-52.23-29.551zm206.93 3.9687c-21.402 6.4488-21.401 6.4481-46.062 15.59 7.0866 36.142 7.0868 36.143 13.465 75.332 5.1024-2.3386 5.1034-2.3394 9.8516-4.8906 4.748-2.5512 4.7464-2.5521 9.2108-5.3867-4.3936-24.378-4.392-24.377-9.2108-47.621 10.772-4.3937 10.771-4.3931 21.047-8.0781 2.4094-0.8504 2.408-0.85328 4.6758-1.6328h0.07l4.254-1.2734c-3.6142-11.268-3.6158-11.267-7.3008-22.039zm-601.44 9.4258c-23.315 15.661-23.316 15.661-45.922 31.605-17.433-7.6535-17.43-7.6544-33.375-14.387-1.4174 1.1339-1.417 1.1345-2.5508 1.9141-9.4962 7.3701-9.4968 7.371-18.922 14.883 23.74 10.772 23.74 10.773 51.024 23.883 35.646-24.732 35.645-24.735 72.566-48.617-3.756-1.7008-3.7564-1.6982-7.4414-3.3281-7.8662-2.9764-7.8672-2.9768-15.379-5.9531zm276.02 0.35158c-40.819 19.842-40.817 19.842-82.203 41.031-1.3466 44.291-1.3484 44.292-2.2696 90.852 14.953-8.5748 14.956-8.5747 29.625-17.008 0.2834-29.693 0.2824-29.693 0.6368-58.465 27.425-13.819 27.424-13.818 54.637-27.07-0.142-14.882-0.142-14.883-0.4258-29.34zm88.09 2.8359c0.7796 14.315 0.7786 14.315 1.629 29.055 27 14.598 27.001 14.598 53.93 29.551 1.7008 28.205 1.6978 28.205 3.3986 57.473 14.244 8.7874 14.245 8.7902 28.348 17.648-2.7638-45.354-2.7614-45.354-6.3048-88.512-40.323-23.173-40.323-23.175-81-45.215zm-257.04 2.4805c-1.4174 14.315-1.4142 14.317-2.4064 28.773 25.158 11.622 25.157 11.619 51.024 23.879-1.2048 28.701-1.2078 28.703-2.129 58.254 14.173 7.7953 14.173 7.7935 28.488 15.73 1.1338-46.488 1.1344-46.487 2.41-90.637-39.614-18.85-39.615-18.85-77.387-36zm548.86 2.9062c-3.1182 0.49608-3.1186 0.49614-6.9454 0.9922 23.032 24.803 23.033 24.804 42.805 49.395 2.7638-1.063 2.7624-1.0625 3.6836-1.5586-3.4014-5.7402-6.9444-11.339-10.559-16.938-0.992-0.56694-0.9916-0.56918-2.5506-0.21486-12.402-15.52-12.402-15.518-26.434-31.676zm6.7342 0.28126c8.4332 11.906 8.504 11.977 16.512 24.945 0.7086 0.1418 0.7066 0.1424 1.2734 0.4258 0.142-0.1418 0.142-0.1394 0.4962 0.21484-5.811-8.7165-11.903-17.295-18.281-25.586zm-13.961 3.4727c4.181 9.8504 4.1782 9.8516 8.3594 20.34l4.2538 4.2539 0.14-0.1446c7.2284 7.6535 7.2276 7.6528 14.102 15.094 5.3858 6.0236 5.3882 6.0261 10.703 12.191 7.0866 19.984 7.0856 19.983 13.605 41.172 6.7322 8.2913 6.7308 8.2924 13.18 16.867-9.9212-31.819-9.9198-31.818-21.684-61.652-19.772-23.953-19.77-23.956-42.66-48.121zm-623.34 1.6328c-37.488 23.669-37.488 23.669-73.488 47.977-5.5276 40.677-5.526 40.676-10.203 83.691 12.331-8.8583 12.329-8.8577 24.66-17.574 2.9056-27.85 2.907-27.85 6.3086-54.992 24.095-15.52 24.095-15.519 48.969-31.039 1.7008-14.102 1.6988-14.102 3.754-28.062zm494.72 5.3125c-31.961 13.89-31.964 13.891-66.547 29.836 3.7558 43.087 3.759 43.088 6.5938 88.301 12.898-7.2283 12.895-7.2292 25.367-14.387-2.0552-28.488-2.0538-28.491-4.6758-56.199 22.394-10.417 22.393-10.417 43.582-20.055-2.126-13.961-2.1234-13.961-4.3204-27.496zm86.668 2.9766c-1.063 0.28348-1.0648 0.28464-1.7734 0.85158-6.7322 2.7638-6.732 2.7636-14.031 5.5273 31.606 25.228 31.606 25.228 60.59 50.527 16.724-9.4961 16.725-9.4954 29.41-16.582-2.693-3.0472-2.6938-3.0471-5.3868-6.0234-5.4566-5.8819-5.4534-5.8815-11.406-12.047-8.7166 4.748-8.7172 4.7464-19.418 10.203-18.354-16.157-18.354-16.158-37.984-32.457zm-768.4 0.42578c-0.5668 0.2126-0.5686 0.21266-1.2772 0.9922-3.8268 5.4567-7.5812 10.913-11.195 16.512 0.3544-0.4252 0.3554-0.42634 0.3554-0.35548-9.3542 15.874-9.3548 15.876-17.93 32.742 1.4882 0.77952 1.4868 0.78078 3.1876 2.3398 12.756-27.85 12.757-27.853 26.859-52.23zm7.3008 0.21094c-4.3936 9.2835-4.3936 9.2836-9 19.488 0.9922 0.0708 0.99 0.0738 1.7696 0.64064l0.3554-0.42578c3.26 1.559 3.2586 1.5592 7.1564 2.9766 3.3306 1.6299 3.3334 1.6295 7.16 3.0469-6.3778 21.047-6.3798 21.048-12.262 43.441 5.8818 3.8268 5.8832 3.8245 12.332 7.793 8.433-35.929 8.4314-35.929 18.211-69.023-14.74-5.4567-14.738-5.4572-25.723-7.9375zm743.03 9.9922c2.8346 12.968 2.835 12.97 5.457 26.293 20.693 15.803 20.693 15.805 40.535 31.82 4.5354 25.087 4.5358 25.087 8.4334 50.953 9.9214 8.7874 9.9208 8.7874 19.559 17.504-6.2362-39.827-6.237-39.827-13.891-77.527-28.772-24.52-28.771-24.523-60.094-49.043zm-693.92 6.9453c-3.3306 12.827-3.3328 12.83-6.2382 25.586 15.52 7.5827 15.522 7.5814 32.742 15.66-3.8976 26.079-3.8982 26.078-7.4414 53.148 10.063 5.8819 10.064 5.8838 20.41 12.262 4.819-42.874 4.819-42.876 10.488-83.27-26.646-12.968-26.646-12.969-49.961-23.387zm373.61 5.8828c-14.457 7.3701-14.458 7.371-28.844 14.883 42.52 22.535 42.523 22.534 85.609 46.133 40.677-21.543 40.674-21.543 79.863-41.598-15.094-8.7165-15.092-8.7159-29.762-17.078-25.653 13.181-25.656 13.181-51.734 27.07-27.78-14.953-27.779-14.953-55.133-29.41zm-447.95 3.1172c-0.2642 0.45256-0.2888 0.49756-0.5274 0.90626 0.118-0.1624 0.2468-0.38506 0.5274-0.90626zm-0.5274 0.90626c-0.09 0.1246-0.17 0.21722-0.3242 0.3711-6.8032 11.055-13.18 22.254-19.133 33.805 1.9842-3.4724 1.9868-3.5466 4.1836-7.5859 1.4882-2.622 1.4862-2.6196 2.7618-4.8164 1.559-2.6929 1.5598-2.6943 2.9062-4.8203 4.7072-8.5402 5.173-9.3621 9.6054-16.953zm291.93-0.48048c-26.221 15.661-26.221 15.663-52.441 31.82-23.598-11.906-23.597-11.905-46.133-23.031-13.181 8.5039-13.18 8.5033-26.149 17.078 34.228 17.433 34.228 17.435 71.008 36.781 40.677-24.732 40.675-24.735 81.777-48.688-14.173-7.1575-14.173-7.1578-28.062-13.961zm-276.38 1.3477c-13.677 16.228-13.674 16.229-25.863 31.891-3.756-2.5512-3.7568-2.5543-5.3868-4.6094-0.7794 1.3465-0.7812 1.3488-1.2774 2.1992-3.9684 7.1575-3.9666 7.1578-7.7226 14.457 1.3464 3.4724 1.3464 3.4719 7.0156 9.5664 19.559-24.661 19.557-24.661 42.234-49.535-1.4882-0.99214-1.4888-0.9928-2.9062-1.9141-3.3308-0.92126-3.33-0.92084-6.0938-2.0547zm9.2148 7.582c-22.677 24.165-22.677 24.164-42.519 48.684-9.2126 33.378-9.2148 33.379-16.727 68.883 6.1654-8.2913 6.1666-8.289 12.828-16.793 4.8188-23.173 4.819-23.175 10.488-45.781 13.819-15.591 13.818-15.591 29.055-31.465 3.4016-11.976 3.4026-11.976 6.875-23.527zm675.5 2.9062c-11.268 5.4567-11.269 5.4557-22.891 11.125 38.126 25.228 38.125 25.23 74.621 50.812 28.276-16.512 28.276-16.511 53.504-30.543-11.197-9.2126-11.195-9.2132-22.746-18.426-16.866 9.3543-16.869 9.3539-35.152 19.559-23.173-16.228-23.171-16.228-47.336-32.527zm177.66 0.28126c-0.9214 0.49606-0.9198 0.4995-3.6836 1.5625 11.764 29.339 11.761 29.337 21.894 61.156 1.4174-1.2047 1.4208-1.2066 2.5548-2.7656 0.992-1.4882 0.9882-1.4883 1.9804-2.4805-6.9448-19.701-6.9412-19.7-14.453-38.125 1.134-1.1339 1.133-1.1345 1.629-1.418-0.2834-0.4252-0.2858-0.42522-0.2148-0.4961-3.1182-5.8819-6.3764-11.693-9.707-17.434zm-463.46 5.5312c-0.3542 16.087-0.3548 16.084-0.4256 32.383 27.709 14.528 27.709 14.528 55.984 29.41 0.142 30.968 0.142 30.967 0.4258 62.645 14.882 8.7165 14.883 8.7199 29.836 17.578-0.567-49.323-0.5682-49.323-1.3476-97.016-42.591-23.032-42.591-23.031-84.473-45zm449.57 0.84766c-13.039 6.5197-13.037 6.5207-29.832 15.875 7.7244 37.346 7.7214 37.346 13.887 76.605 7.0866-5.1732 7.0892-5.1716 13.68-10.203-4.3936-24.661-4.3948-24.663-9.3554-48.262 10.488-5.9527 10.489-5.9529 18.922-11.48-3.614-11.551-3.6156-11.551-7.3006-22.535zm-540.78 1.3477c-41.598 23.598-41.598 23.6-82.559 47.836-2.4094 46.488-2.4114 46.487-4.254 94.605 14.102-9 14.103-9 28.418-18 0.9922-30.968 0.9928-30.97 2.4102-61.371 18.638-10.701 18.638-10.702 37.418-21.332 4.4646-2.5512 4.4612-2.5498 8.9258-5.1719 0 0.0708 0 0.0698 0.074 0.1406 4.252-2.4094 4.249-2.4086 8.3594-4.6055 0.6378-16.228 0.64-16.228 1.207-32.102zm265.61 2.1953c-39.472 19.701-39.473 19.702-80.363 40.891 0.7794 47.622 0.7796 47.623 1.4882 96.875 14.669-8.5748 14.668-8.5747 29.195-17.008-0.6378-31.394-0.6352-31.393-1.3438-62.078 18.354-9.4961 18.354-9.4989 36.496-18.641 4.1812-2.1969 4.1812-2.1938 8.504-4.3906 3.9684-1.9842 3.9696-1.985 7.8672-3.8984-0.7796-16.016-0.7808-16.018-1.8438-31.75zm-517.32 6.2383c-19.276 16.512-19.275 16.512-37.559 33.023-12.543-7.5118-12.543-7.511-23.031-14.598-8.1496 8.7874-8.1484 8.7873-15.66 17.008 15.165 11.197 15.165 11.197 34.512 24.449 28.417-24.945 28.416-24.949 59.668-50.531-9.2834-4.6772-9.284-4.6744-17.93-9.3516zm601.8 0.28124c1.4882 15.378 1.4868 15.379 2.6914 30.898 3.4016 2.126 3.4016 2.1257 7.0158 4.5352 0.2126-0.2126 0.2132-0.21374 0.4256-0.35548 11.693 7.6536 11.694 7.6573 23.317 15.523 9.4252 6.0945 9.4258 6.0908 18.922 12.469 2.2676 28.984 2.264 28.985 3.9648 58.395 12.543 9 12.545 9.0017 24.734 17.789-2.9764-45.78-2.9762-45.78-7.0156-89.93-36.071-24.661-36.07-24.663-74.055-49.324zm-511.3 3.53c-1.9134 15.236-1.9142 15.236-3.4024 30.473 2.8346 1.7008 2.8356 1.7038 5.8828 3.1211l0.5664-0.42578c10.346 5.7402 10.347 5.7398 20.977 11.551 8.9292 4.9606 8.927 4.9596 18.281 9.6367-1.8424 29.835-1.8404 29.833-3.2578 60.164 12.898 7.937 12.896 7.938 26.219 15.875 1.9842-48.047 1.984-48.045 4.5352-94.32-36.213-18.921-36.21-18.925-69.801-36.074zm729 4.2539-0.144 0.0704c0 0.56694 0 0.56814-0.3516 1.3477 7.1574 12.969 7.1566 12.966 13.605 26.359-4.1102-9.4252-8.503-18.706-13.109-27.777zm0.14 3.9687c4.0394 9.9213 4.0388 9.922 8.078 20.41 8.6458 15.661 8.645 15.661 15.59 30.543 6.307 19.417 6.3078 19.416 11.906 39.613 2.8346 7.7244 2.8366 7.7237 5.246 15.59-3.0472-11.906-3.0486-11.904-6.3086-23.738-5.1022-17.15-11.126-33.876-17.93-50.246-7.5826-16.087-7.653-16.156-16.582-32.172zm-800.29 2.4102c-31.394 24.732-31.391 24.73-60.375 49.746-5.315 40.535-5.3172 40.535-9.2148 82.559 9.4252-8.5748 9.4274-8.5742 19.207-17.078 2.4802-27.354 2.4796-27.354 5.5976-54.07 13.394-10.984 13.391-10.984 27.352-21.969 3.4016-2.8346 3.4042-2.8333 6.664-5.1719h0.14c3.189-2.3386 3.1888-2.3378 6.5196-5.1016 1.8426-14.315 1.8416-14.316 4.1094-28.914zm717.59 6.1641c-25.228 13.961-25.23 13.96-53.789 30.117 4.0394 43.795 4.0394 43.797 7.0156 89.223 10.913-7.0866 10.915-7.0881 21.332-14.316-2.126-28.417-2.1264-28.415-4.961-56.762 12.614-7.2283 12.612-7.2298 24.73-13.82l5.2462-3.543c0.2126 0.35434 0.2108 0.35212 0.2108 0.28126 2.3386-1.6299 2.3396-1.6268 4.8908-2.9024-2.2678-14.244-2.2664-14.246-4.6758-28.277zm-835.94 1.418-0.2148 0.49608c-4.1102 9.3543-4.108 9.3522-8.289 19.273 0.8504 3.1181 0.8494 3.118 3.6132 7.0156-5.9528 20.906-5.9552 20.905-11.199 42.52 2.622 3.9685 2.6236 3.9684 5.8124 8.0078 7.6536-35.079 7.6546-35.078 16.867-68.102-5.3148-5.811-5.3148-5.8094-6.5194-9.2109zm899.15 1.9844c-4.8188 2.9055-4.82 2.9059-9.8514 6.4492 22.535 25.157 22.535 25.158 41.598 49.465 7.441-9.5669 7.441-9.5697 10.488-17.152-4.252-8.7874-4.2492-8.7846-8.8554-17.359-2.8346 5.0315-2.834 5.0299-7.582 10.699-12.118-15.803-12.12-15.802-25.797-32.102zm-11.195 10.84c2.8346 13.181 2.8316 13.182 5.3828 26.434 2.126 2.126 2.1284 2.1274 4.1836 4.3242 0.142-0.0708 0.14-0.0704 0.14-0.5664 7.0866 7.8661 7.0852 7.866 13.676 15.023 5.3858 6.2362 5.3858 6.2353 10.488 12.117 3.8976 24.449 3.8976 24.451 7.0156 49.254 6.3072 8.0079 6.3102 8.0055 12.121 15.801-4.748-37.843-4.7498-37.84-11.27-74.336-19.134-23.598-19.132-23.602-41.738-48.051zm-437.95 2.5547c-27.638 15.803-27.638 15.803-55.418 31.961-27.354-14.882-27.357-14.884-54.215-29.27l-3.6836 2.125c-12.685 7.3701-12.687 7.3721-25.301 14.742 41.244 22.465 41.246 22.464 83.766 46.062 42.874-24.661 42.874-24.664 85.465-48.688-15.449-8.5039-15.448-8.5005-30.613-16.934zm-458.43 3.3984c-3.0472 7.1575-5.9554 14.388-8.6484 21.688 1.559-3.685 1.5626-3.6849 3.0508-7.5117 2.8346-7.0866 2.8338-7.16 5.5976-14.176zm619.09 0.42578c-1.8426 0.8504-1.8428 0.85218-3.4726 1.7734-12.189 6.4488-12.189 6.4491-24.449 12.969 42.449 25.228 42.448 25.226 84.117 50.738 37.276-21.543 37.278-21.541 72.145-41.738-4.4646-2.9764-4.4656-2.9773-8.8594-5.8828-9.2834-6.0236-9.2852-6.0238-18.781-11.977-22.89 13.11-22.89 13.109-46.984 26.715-26.646-16.37-26.644-16.369-53.715-32.598zm-591.52 0.0704c-3.118 12.968-3.12 12.969-5.7422 25.441 1.2048 0.99212 1.205 0.99224 2.4806 1.9844 0.07 0.0708 0.074 0.0704 0.144 0.0704 4.6062 3.7559 4.6056 3.7581 9.5664 7.7266 4.5354 3.1181 4.5342 3.1158 9.1406 6.8008-3.5434 25.654-3.5444 25.655-6.379 51.875 7.2284 5.811 7.2294 5.8106 14.883 12.047 3.9686-41.598 3.9692-41.598 9.4258-81.992-18.709-13.11-18.708-13.111-33.519-23.953zm171.92 7.5117c-23.599 16.512-23.598 16.513-46.559 33.379-19.772-11.976-19.774-11.976-38.199-23.102-1.4174 1.1339-1.4154 1.1323-2.7618 2.1953-9.567 7.5118-9.5682 7.5116-18.852 15.023 27.567 17.433 27.568 17.435 58.324 36.711 35.787-25.157 35.788-25.16 73.488-50.672-4.252-2.3386-4.2526-2.3377-8.4336-4.6055-8.5748-4.5354-8.5748-4.536-17.008-8.9297zm-202.39 1.7031c-5.1024 11.197-5.1018 11.195-9.5664 22.676-3.2598 9.2835-6.2362 18.71-9 28.277 0.07 0.0708 0.07 0.0704 0.14 0.0704 8.3622-23.102 8.3606-23.103 20.195-46.418-1.063-2.622-1.061-2.6212-1.7696-4.6055zm1.2774 8.2187c-12.118 23.173-12.118 23.175-20.481 45.781-7.2992 30.827-7.301 30.826-12.758 63.637 1.9844-7.441 1.9846-7.4424 4.4648-14.812 3.5434-21.118 3.5428-21.117 8.0782-42.59 4.1102-9.4252 4.1092-9.4247 9.1406-19.559 1.2756-2.2677 1.278-2.2675 2.6954-5.0313v0.0704c1.2756-2.2677 1.2746-2.2674 2.621-4.5352 3.0472-11.764 3.0494-11.764 6.2384-22.961zm494.64 2.2695c-43.087 23.457-43.087 23.456-86.387 47.621-0.4962 49.961-0.4978 49.962-0.7814 100.77l30.051-17.434c0.142-32.882 0.14-32.882 0.2814-65.48 28.63-15.591 28.629-15.591 57.117-30.969-0.2126-17.362-0.2104-17.362-0.2814-34.512zm352.49 1.2734-2.2696 1.1367c-7.7952 5.0315-7.7956 5.0299-15.945 10.203 31.11 25.016 31.113 25.016 59.601 49.961 20.48-16.228 20.48-16.23 36.992-30.828-2.622-3.1181-2.625-3.1157-5.1054-5.8086-5.4568-6.0236-5.4568-6.0238-10.984-11.48-11.551 9.2126-11.549 9.211-24.73 19.203-18.213-16.157-18.212-16.158-37.559-32.387zm-259.37 0.35546c0.3544 17.008 0.3534 17.007 0.6368 34.156 27.921 16.016 27.922 16.016 55.418 31.961 0.7086 31.89 0.7076 31.893 1.1328 64.137 14.244 8.7165 14.246 8.7165 28.277 17.504-0.7086-49.606-0.7076-49.607-2.125-98.434-41.244-24.803-41.245-24.805-83.34-49.324zm-271.7 1.2031c-0.8504 17.008-0.8504 17.011-1.4882 34.09 26.858 14.386 26.855 14.384 54.352 29.266-0.4962 32.386-0.494 32.385-0.7774 65.055 14.74 8.5748 14.74 8.577 29.551 17.223 0.3542-50.74 0.3554-50.742 0.8516-100.7-41.882-23.032-41.882-23.032-82.488-44.93zm637.23 3.6875c-3.0472 7.5827-3.0474 7.5826-10.488 17.008 6.5904 36.071 6.5918 36.07 11.34 73.133 3.8268-5.1732 3.826-5.1711 7.0858-10.273-3.4014-23.244-3.4008-23.245-7.582-45.922 2.9764-4.5354 2.9756-4.5365 5.1016-8.3633 0.2834-1.1339 0.2824-1.1356 0.6368-1.7734 0.2126-1.1339 0.2132-1.1317 0.4258-1.7695-3.189-11.268-3.1888-11.267-6.5196-22.039zm-723.9 0.9922c-38.126 24.945-38.123 24.943-74.336 49.746-2.2676 46.205-2.2674 46.207-3.543 93.191 11.976-8.2205 11.974-8.2226 24.305-16.727 0.8504-30.756 0.8494-30.754 2.125-61.227 24.449-16.016 24.448-16.017 49.535-31.82 0.9922-16.795 0.993-16.794 1.9142-33.164zm523.35 3.0469c-35.22 19.63-35.222 19.629-72.781 40.676 1.559 48.827 1.5608 48.826 2.2694 98.078 13.606-8.2205 13.606-8.217 27-16.438-0.6376-31.535-0.6366-31.537-1.6288-62.859 24.165-13.89 24.165-13.891 47.551-26.789-1.2048-16.512-1.2054-16.51-2.4102-32.668zm-728.5 6.7305c-13.11 15.874-13.109 15.876-24.66 31.254-6.0946-7.937-6.0952-7.9374-10.418-14.953-0.6378 1.3465-0.6402 1.3483-1.207 2.2695-3.5434 6.874-3.5416 6.8709-6.7306 13.391 5.1734 11.693 5.1748 11.696 14.813 25.16 18.213-23.244 18.209-23.245 39.895-47.41-2.0552-1.7717-2.0548-1.7724-4.0392-3.4023-4.0394-2.9764-4.0382-2.9779-7.6522-6.3086zm801.36 0.78126c1.4882 15.378 1.4856 15.377 2.832 31.18 20.622 15.52 20.625 15.522 40.113 31.254 1.7718 28.276 1.7686 28.276 2.9024 56.977 9.496 8.0787 9.4962 8.0775 18.496 15.66-1.5592-43.299-1.5578-43.298-4.6758-86.102-28.417-24.307-28.416-24.307-59.668-48.969zm-734.95 3.543c-1.7716 15.236-1.7734 15.238-3.2616 30.332 17.787 11.551 17.789 11.55 36.851 24.164-1.488 29.409-1.4876 29.408-2.5506 59.172 10.984 7.5827 10.983 7.5831 22.18 15.449 1.3464-46.984 1.3484-46.984 3.7578-93.047-30.189-18.709-30.189-18.708-56.977-36.07zm-53.648 10.133c-21.968 23.528-21.968 23.529-40.535 46.773-3.8268 38.268-3.8242 38.269-5.8086 76.891 5.4568-6.874 5.4574-6.8771 11.41-14.105 1.4174-26.008 1.4164-26.007 3.6134-51.59 13.11-14.528 13.109-14.528 27.637-29.41 1.7008-14.244 1.6994-14.244 3.6836-28.559zm890.93 5.7422c-16.725 13.89-16.723 13.888-37.133 30.258 3.1182 42.449 3.1196 42.449 4.8204 85.465 8.0788-7.0158 8.0764-7.0133 15.801-13.816-1.3464-27.425-1.3444-27.428-3.2578-54.145 12.685-10.772 12.684-10.77 23.598-20.691-1.8424-13.748-1.8438-13.747-3.828-27.07zm33.449 0.70704c-0.07 0.56692-0.07 0.56588-0.211 1.1328-1.1338 2.9764-1.1358 2.9801-2.7656 6.0273 10.984 22.819 10.985 22.816 17.93 44.359-0.2126-2.0551-0.2136-2.0542-0.3554-3.6133-1.2756-6.874-2.691-13.677-4.25-20.48l0.2852 1.9844c-4.5354-14.669-4.5384-14.67-10.633-29.41zm-3.1876 11.41c2.2678 12.402 2.2658 12.403 4.25 24.805 7.441 13.89 7.4434 13.887 13.184 27.352 2.4804 22.252 2.4794 22.252 4.1094 45 1.9842 6.5197 1.985 6.5227 3.4024 12.617-2.2678-33.661-2.2676-33.664-6.5196-66.617-7.2992-21.402-7.2998-21.4-18.426-43.156zm-471.9 3.4023c-14.953 8.4331-14.953 8.4336-29.977 16.938 44.079 25.228 44.081 25.226 88.23 50.738 42.378-24.661 42.377-24.661 83.691-48.613-15.165-9.2126-15.165-9.2132-30.473-18.426-26.929 15.945-26.929 15.944-54.496 32.102-28.488-16.441-28.488-16.439-56.977-32.738zm-163.42 1.2031c-26.929 16.866-26.926 16.868-53.359 33.734-25.37-14.882-25.372-14.883-49.75-29.41-13.252 8.7165-13.25 8.7171-26.219 17.434 36.921 22.535 36.92 22.535 76.18 46.062 40.89-25.441 40.89-25.442 82.914-50.883-14.953-8.5039-14.955-8.5044-29.766-16.938zm-343.56 0.85156c-2.4094 11.976-2.4092 11.976-4.5352 24.023 3.26 7.7953 3.2604 7.7963 8.4336 16.371-2.3386 23.74-2.3394 23.74-3.8984 47.977 3.8268 6.1653 3.8256 6.1628 8.1484 12.328 2.0552-38.409 2.0562-38.406 5.8828-76.391-9.1416-13.252-9.1414-13.253-14.031-24.309zm-3.1874 0.77734c-3.8978 15.591-7.0868 31.538-9.4962 47.695-0.2126 1.9842-0.2132 1.984-0.4258 4.5352 4.3938-26.717 4.3944-26.719 9.922-52.23zm993.33 0.28516c0.2836 1.4882 0.2836 1.4883 0.4962 2.4805v-0.49608c-0.2126-0.6378-0.3544-1.3466-0.4962-1.9844zm-220.11 3.9687c-12.189 7.5118-12.187 7.5122-24.801 14.953 38.126 25.299 38.125 25.301 74.125 50.316 31.323-21.543 31.323-21.545 59.527-41.812-10.913-8.9291-10.913-8.928-22.039-17.645-19.134 13.181-19.135 13.179-39.402 27.211-23.244-16.512-23.245-16.512-47.41-33.023zm-657.43 7.1563c-18.921 16.228-18.921 16.231-36.496 32.105-14.598-12.26-14.598-12.26-27.566-23.457-7.5826 8.1496-7.5802 8.1478-14.809 16.227 18.78 17.646 18.777 17.645 41.383 37.062 27.354-23.528 27.356-23.527 57.758-48.117-10.417-6.874-10.419-6.8754-20.27-13.82zm358.8 9.8513c0 17.929 0 17.93-0.2148 35.93l57.547 31.891v66.258c14.953 8.7165 14.953 8.7182 29.977 17.293 0.07-50.953 0.07-50.953 0-101.98-43.654-24.874-43.655-24.875-87.309-49.395zm-94.535 0.85156c-42.378 24.874-42.377 24.873-83.621 49.605-0.4252 49.819-0.4286 49.819-0.074 99.992 13.89-8.3622 13.89-8.3633 27.922-16.867-0.142-32.74-0.142-32.738 0-65.266 27.496-15.803 27.496-15.805 55.488-31.82 0.142-17.929 0.144-17.928 0.2852-35.645zm573.95 0.5664c-5.882 5.5276-5.8844 5.5272-12.191 11.551 21.047 23.102 21.049 23.101 38.269 45.141 10.843-17.008 10.843-17.007 17.504-31.605-3.4016-7.6535-3.4032-7.6522-7.3008-15.164-5.315 9.5669-5.3152 9.5659-12.473 19.629-11.055-14.315-11.053-14.315-23.809-29.551zm-298.14 0.35548c-41.528 23.457-41.526 23.455-84.258 47.691 0.07 50.953 0.07 50.954 0 101.91 14.953-8.7874 14.951-8.7874 29.762-17.504 0.07-32.882 0.07-32.884 0-65.695 27.921-15.661 27.923-15.658 55.277-30.895-0.3542-17.787-0.356-17.787-0.7812-35.504zm87.945 2.6914c0.496 17.22 0.4972 17.222 0.8514 34.371 25.087 15.803 25.085 15.801 49.18 31.25 0.2126 31.039 0.216 31.039 0.074 62.078 12.047 7.7244 12.045 7.7276 23.738 15.594 0.4962-47.126 0.4972-47.127-0.14-94.395-35.787-24.165-35.79-24.166-73.703-48.898zm-531.28 1.2734c-0.7086 16.937-0.7098 16.94-1.3476 34.09 23.953 14.315 23.954 14.313 48.828 29.195-0.2126 31.89-0.2126 31.889 0 64.062 13.535 8.5748 13.533 8.5764 27.352 17.293-0.3544-50.032-0.351-50.034 0.074-99.641-38.622-22.961-38.623-22.961-74.906-45zm-74.125 4.2539c-30.756 23.811-30.756 23.812-58.465 46.914-0.7794 43.583-0.7822 43.583-0.144 87.945 8.7166-7.0157 8.7182-7.015 17.789-14.598-0.2836-29.268-0.2842-29.271 0.07-58.043 18.992-14.669 18.993-14.667 39.332-29.832 0.6378-16.299 0.6384-16.3 1.418-32.387zm746.57 2.6914c-28.417 19.772-28.418 19.772-59.883 40.891 0.6378 47.339 0.6368 47.339 0.14 93.898 11.551-8.0787 11.553-8.0792 22.82-16.441 0.2126-29.551 0.2132-29.552-0.07-59.883 20.055-13.465 20.054-13.462 38.691-26.855-0.7796-15.945-0.778-15.948-1.6992-31.609zm-886.75 0.5703c-5.386 14.032-5.3854 14.028-9.0704 26.926 0-3.1181 0-3.1168 0.2852-6.1641-0.9922 6.9449-1.7724 13.891-2.4102 20.836-0.2126 4.1102-0.2126 4.1085 0 8.7148 5.811-19.346 5.8098-19.347 15.66-40.395-2.5512-4.9606-2.5516-4.9573-4.4648-9.918zm1002.5 0.35156c0.142 1.4882 0.144 1.4878 0.2852 3.0469 4.3228 32.457 4.322 32.46 6.5898 66.121 0.2126-4.0394 0.2114-4.1102 0.14-8.0078-1.1338-20.764-3.4724-41.176-7.0156-61.16zm-61.086 4.8906c1.063 14.882 1.0642 14.88 1.8438 29.691 13.961 14.102 13.958 14.105 26.289 27.215 0.4252 26.362 0.428 26.363 0.144 51.875 5.4568 6.4488 5.4534 6.4479 10.414 12.613 0.7796-38.622 0.7808-38.624-0.14-77.742-17.504-21.472-17.503-21.471-38.551-43.652zm-905.46 2.1953c-1.2048 14.528-1.2038 14.531-2.125 28.562 11.976 11.906 11.975 11.904 25.652 24.234-0.4252 27.709-0.4242 27.709-0.14 55.488 8.1496 7.7244 8.1484 7.7237 16.652 15.59-0.7086-44.15-0.7064-44.151 0.215-87.379-22.039-19.134-22.041-19.134-40.254-36.496zm-31.109 7.0898c-10.063 20.551-10.063 20.548-16.016 39.398-1.2048 33.661-1.207 33.662-0.2148 68.457 0.8504-5.6693 0.8522-5.6672 2.2694-10.77-0.3542-23.457-0.3554-23.458 0.14-46.348 4.8898-11.835 4.8894-11.836 11.551-24.379 0.9922-13.394 0.994-13.391 2.2696-26.359zm995.74 4.1797c-6.6614 14.032-6.6612 14.032-17.504 30.473 0.9922 38.835 0.9944 38.833 0.2148 77.172 4.819-7.0157 4.8178-7.0144 9.1406-13.676 0.3544-24.236 0.355-24.237-0.07-48.402 6.1654-10.913 6.165-10.915 10.559-20.836-1.063-12.685-1.0642-12.683-2.3398-24.73zm-515.27 22.891c-28.276 16.937-28.276 16.934-56.41 33.871-28.276-16.512-28.274-16.51-56.195-32.738-14.669 8.7165-14.672 8.7176-29.199 17.363 42.732 25.157 42.733 25.155 86.457 50.809 43.299-25.512 43.301-25.512 86.813-51.023-15.803-9.1417-15.804-9.1395-31.465-18.281zm164.83 1.418c-14.386 8.5039-14.386 8.5039-28.984 17.008 42.661 25.441 42.662 25.439 83.906 50.242 39.118-24.52 39.121-24.52 76.184-48.402-13.394-9.0709-13.394-9.0714-27-17.93-24.661 15.803-24.665 15.803-50.105 32.031-26.717-16.37-26.717-16.367-54-32.949zm-430.51 1.2031c-23.457 16.157-23.453 16.156-45.918 32.242-21.543-15.165-21.545-15.162-41.812-29.406-10.488 7.8661-10.49 7.8632-20.766 15.871 30.189 22.535 30.19 22.538 63.426 46.703 34.724-24.165 34.726-24.166 71.789-48.402-13.535-8.5748-13.538-8.5747-26.719-17.008zm-231.38 3.543c-1.1338 13.89-1.7032 27.991-1.7032 42.164 0 7.8661 0.2126 15.662 0.4962 23.457 0.3542 3.9685 0.3544 4.1805 0.9922 8.5742-0.9214-34.37-0.919-34.37 0.2148-67.535-0.07-3.6142-0.07-3.6129 0-6.6602zm895.04 0.4961c-9.992 7.0866-9.9938 7.0853-20.269 14.668 29.976 23.102 29.975 23.105 56.621 44.719 23.244-21.26 23.245-21.261 42.945-41.387-7.0866-7.8661-7.086-7.866-14.598-15.52-13.677 13.039-13.678 13.039-28.914 27-17.22-14.457-17.218-14.457-35.785-29.48zm-846.57 2.5508c-11.905 14.244-11.909 14.246-22.113 27.711-8.2914-11.976-8.2884-11.978-14.879-23.316-3.4016 6.8031-3.4036 6.8012-6.2382 13.25 8.6456 17.717 8.6454 17.718 21.543 37.773 15.874-20.268 15.874-20.266 35.504-41.172-7.1574-7.2992-7.155-7.3012-13.816-14.246zm965.62 5.8125c-2.4804 5.7402-2.4808 5.7409-5.457 11.41 8.433 18.85 8.4326 18.849 12.543 35.219 0.567-4.8189 0.639-5.1035 0.8516-9.3555v-3.9688c0-6.2362-0.142-12.4-0.3554-18.637 0 4.3228-0.07 4.6063-0.4962 9.4961-2.622-11.693-2.6212-11.692-7.0858-24.164zm-481.75 10.344c-43.795 24.874-43.796 24.876-87.449 49.75 0.2834 50.882 0.2856 50.883 0.7108 100.91 7.441-4.1811 7.4424-4.1822 14.813-8.3633 7.37-4.4646 7.3676-4.4651 14.809-8.9297-0.142-32.315-0.14-32.315-0.211-64.984 28.701-15.945 28.701-15.945 57.473-31.961zm95.176 0.1446c0 18.142 0.0004 18.141-0.07 36.141 27.779 15.661 27.779 15.661 54.992 31.039-0.4252 32.173-0.4286 32.174-1.0664 63.922 13.748 8.2205 13.75 8.2192 27.285 16.156 1.4174-48.969 1.417-48.969 2.0548-98.434-40.961-24.236-40.959-24.234-83.195-48.824zm-277.58 0.1406c-0.142 17.929-0.144 17.929-0.144 36 27.638 15.874 27.64 15.875 55.774 31.891 0.2126 32.457 0.2114 32.456 0.6366 64.629 14.811 8.8583 14.813 8.8571 29.766 17.645-0.5668-49.961-0.5686-49.959-0.7812-100.7-43.157-24.803-43.155-24.803-85.25-49.465zm-88.586 0.63672c-37.417 23.953-37.417 23.952-72.496 47.055 1.134 47.126 1.1346 47.126 3.4024 93.473 5.5984-3.5433 5.5996-3.5432 11.34-7.0156 5.7402-3.8268 5.7398-3.8239 11.551-7.8633-1.2046-30.26-1.2048-30.26-1.9844-60.945 23.669-14.528 23.671-14.527 48.262-29.551-0.07-17.717-0.074-17.719-0.074-35.152zm534.9 0.56642c-37.276 23.244-37.275 23.245-76.535 47.41-0.7086 49.394-0.7082 49.396-2.0546 98.152l13.891-8.7891c6.7322-4.5354 6.7314-4.5338 13.605-9.2109 0.9212-31.039 0.9208-31.039 1.5586-62.504 25.299-15.732 25.298-15.733 49.676-30.969 0-16.866 0-16.869-0.14-34.09zm-677.05 0.92186c-0.2124 16.016-0.2108 16.016-0.2108 32.527 19.417 14.74 19.417 14.74 40.039 29.551 0.9922 29.693 0.9924 29.693 2.4804 58.961 11.41 8.5039 11.408 8.5045 23.242 17.434-2.3386-46.134-2.3388-46.134-3.4726-92.977-32.528-22.89-32.527-22.89-62.078-45.496zm751.75 0c0.07 16.583 0.07 16.583 0 32.457 19.701 14.032 19.7 14.033 38.055 27.355-1.1338 28.63-1.1358 28.631-2.7656 56.836 8.5038 6.8032 8.5054 6.8 16.797 12.895 2.9764-42.732 2.9766-42.729 4.4648-86.383-26.716-21.047-26.716-21.05-56.551-43.16zm-806.88 1.5586c-19.984 20.693-19.983 20.693-36.141 39.543 1.8426 39.118 1.8418 39.119 5.5978 77.883 2.055-2.9055 2.052-2.903 4.3906-5.3125 2.4094-2.9055 2.4102-2.907 4.8906-5.8125-2.126-25.654-2.1262-25.652-3.4726-51.164 11.551-12.402 11.553-12.404 24.734-24.664-0.07-15.732-0.07-15.732 0-30.473zm911.98 0.85156c-19.63 19.488-19.63 19.487-42.945 40.605-1.5592 43.441-1.5582 43.443-4.6056 86.176 4.5356-4.252 4.536-4.2553 8.9298-8.5781 4.252-4.0394 4.2486-4.0393 8.4296-8.5039 1.8426-26.717 1.8456-26.715 3.1212-54.141 14.386-13.819 14.384-13.818 27.281-27.141 0-13.961 0-13.961-0.211-28.418zm-971.79 1.6992c-0.2126 13.11-0.2116 13.111-0.14 25.867 5.315 11.906 5.3152 11.905 12.473 24.52 1.4882 24.236 1.4868 24.236 3.6836 47.977 4.819 7.6535 4.819 7.6562 9.9922 15.168-3.6142-37.984-3.614-37.985-5.5274-76.395-12.26-18.85-12.26-18.853-20.48-37.137zm1003.3 0.0742c0.2126 12.898 0.2116 12.895 0.14 25.863 5.7402 11.197 5.7392 11.197 9.6368 21.473-1.4882 22.323-1.489 22.322-3.8984 44.574 0.7796 4.8189 0.7824 4.8189 1.1366 9 4.1104-33.52 4.109-33.518 6.1642-67.18-4.4646-16.299-4.4632-16.297-13.18-33.73zm14.457 25.582c-0.2126 3.6142-0.215 3.9668-0.711 8.2187-2.126 33.165-2.1242 33.164-6.2344 66.117 0.7086-3.4724 0.706-3.469 1.3438-6.9414 3.2598-22.039 5.1764-44.505 5.6016-67.395zm-1016.1 13.32c-3.4014 10.843-3.4012 10.845-5.0312 21.191-0.992-5.811-0.9922-6.094-1.4882-11.055 0.496 7.6535 1.1344 15.307 1.914 22.961 0.7796 5.4567 0.7802 5.4568 1.914 10.984 2.6222-14.173 2.6222-14.174 9.4962-29.906-3.685-7.2992-3.6866-7.3018-6.8048-14.176zm1003.5 0.4961c-7.3702 12.968-7.3706 12.969-16.441 26.93-9.3544-11.48-9.3546-11.48-20.481-24.023-6.803 7.3701-6.8056 7.3705-14.176 14.953 18.567 18.709 18.567 18.71 32.953 35.789 13.748-21.472 13.748-21.474 23.527-41.812-2.4094-5.6693-2.4064-5.6706-5.3828-11.836zm-949.04 3.8281c-6.7322 6.8032-6.7314 6.8045-13.109 13.324 21.472 22.323 21.473 22.321 46.488 45.777 25.087-19.346 25.087-19.347 53.434-40.465-11.126-8.4331-11.127-8.4325-21.898-17.078-17.575 14.244-17.572 14.245-33.801 27.852-16.299-14.953-16.302-14.953-31.113-29.41zm816.95 1.4883c-20.551 15.945-20.549 15.944-42.234 32.172-22.181-14.74-22.181-14.739-45.566-29.621-12.898 8.2913-12.898 8.2929-26.008 16.797 36.921 23.032 36.92 23.032 71.148 44.93 33.094-24.591 33.094-24.59 63.496-48.543-10.205-7.6535-10.206-7.6556-20.836-15.734zm-622.77 2.9063c-12.898 8.1496-12.898 8.1495-25.441 16.016 38.551 25.299 38.552 25.301 78.875 50.812 39.898-23.669 39.896-23.671 81.211-48.262-15.236-9.0709-15.236-9.0692-30.473-18.211-26.575 16.299-26.575 16.297-52.512 32.312-26.221-16.37-26.219-16.369-51.66-32.668zm381.9 0.35546c-27.638 16.937-27.641 16.934-55.562 33.871-28.417-16.299-28.416-16.297-57.117-32.809-15.095 8.7165-15.093 8.7137-30.188 17.359 44.291 25.441 44.291 25.442 88.086 50.387 42.803-25.512 42.804-25.512 84.898-50.953-15.024-8.9291-15.023-8.9263-30.117-17.855zm378.64 7.8633c-9.567 19.772-9.569 19.774-23.246 41.246-4.5354 37.063-4.5356 37.061-10.984 73.203 2.7638-3.8268 2.767-3.8256 5.6016-8.1484 2.5512-3.8976 2.5498-3.8987 5.1718-8.3633 4.0394-22.677 4.041-22.678 7.3008-45.922 5.5276-9.1417 5.5244-9.1412 10.414-18.566 0.992-1.9134 0.9922-1.9109 1.9844-4.3203l1.703-3.8281c1.1338-12.614 1.1334-12.616 2.0548-25.301zm-1001.3 2.625c-7.0866 15.378-7.0866 15.378-9.9922 28.559 5.315 32.811 5.3146 32.809 12.543 64.203-0.2126-1.4882-0.2098-1.4878-0.3516-3.0469 0.07-1.6299 0.07-1.6318 0.14-3.7578-4.3228-20.976-4.3238-20.976-7.8672-42.59 1.7716-5.4567 1.7726-5.4569 4.3946-11.48 0.7086-1.6299 0.7082-1.6279 1.5586-2.7617 0.7794-1.6299 0.7784-1.6318 1.6288-2.7656-1.1338-13.394-1.1334-13.391-2.0546-26.359zm31.395 3.8945c0.7794 14.032 0.7812 14.031 1.7734 28.559 1.7008 1.6299 1.701 1.6324 3.4726 3.6875h0.2812c6.378 6.874 6.3778 6.8743 13.039 13.961 5.811 5.7402 5.8122 5.7387 11.836 11.691 2.8348 26.22 2.8328 26.222 6.2344 51.805 8.7874 8.7874 8.7896 8.7857 17.719 17.219-5.2442-40.323-5.243-40.321-9.1406-82.273-24.307-22.748-24.309-22.751-45.215-44.648zm910.21 0.99218c-0.7796 14.74-0.782 14.743-1.7032 29.625 1.7008 1.7008 1.701 1.6976 3.4726 2.9023 0.142 0.0708 0.142 0.0736 0.3556-0.35156 5.5984 5.6693 5.599 5.67 10.914 10.914 4.1812 3.685 4.18 3.6816 8.1484 7.4375-3.189 25.228-3.19 25.231-6.875 49.184 4.252 4.4646 4.252 4.4623 8.0078 8.7852 6.378-36.425 6.3776-36.423 11.055-74.266-14.74-16.299-14.737-16.301-33.375-34.23zm-54.992 3.2617c-30.402 23.457-30.404 23.456-63.641 47.621-2.9056 45.567-2.9032 45.567-6.8008 89.504 5.8818-4.3228 5.8792-4.3211 11.832-8.7148 5.8818-4.6063 5.8814-4.6063 11.551-9 2.6928-28.276 2.6948-28.279 4.75-56.625 14.528-10.701 14.527-10.699 28.559-21.684 3.2598-2.4094 3.2602-2.4103 6.4492-4.8906h0.07c2.9056-2.126 2.9058-2.124 5.9532-4.7461 0.7086-15.591 0.7104-15.591 1.2772-31.465zm-750.33 1.4883c-28.772 20.48-28.771 20.481-54.141 39.473 3.8976 42.378 3.8958 42.376 9.2108 83.195 3.756-2.5512 3.7548-2.5498 7.6524-5.1719 3.8268-3.0472 3.8278-3.0465 7.8672-6.0938-2.9764-26.646-2.9762-26.647-5.5274-54.355 11.693-8.2205 11.692-8.2198 24.164-16.582 3.1182-1.9842 3.1208-1.9862 6.168-4.2539l0.14 0.35546c2.9056-2.1968 2.9066-2.1965 5.8828-4.0391-0.7794-16.016-0.78-16.016-1.4178-32.527zm74.551 2.4805c0.3542 17.008 0.3548 17.008 0.9218 34.016 3.3308 2.0551 3.33 2.0543 6.5898 4.1094 0.2836-0.0708 0.283-0.0692 0.5664-0.21094 11.48 7.5827 11.482 7.5825 23.246 15.52 9.8504 6.0945 9.8472 6.0947 19.91 12.473 1.4174 30.402 1.4198 30.4 3.1914 60.234 13.606 8.7874 13.606 8.7896 27.496 17.719-2.5512-46.559-2.552-46.562-4.3946-94.609-39.685-24.732-39.685-24.73-77.527-49.25zm533.91 0.5664c-0.496 17.362-0.4962 17.363-0.9922 34.441 3.3306 2.0551 3.3294 2.0526 6.6602 3.8242 0.2834-0.2126 0.2828-0.20982 0.5664-0.35156 11.126 6.7323 11.126 6.7309 22.039 13.676 9 5.1024 9.0016 5.1047 17.789 10.207-1.8424 29.835-1.8426 29.833-3.9686 58.746 11.055 6.6614 11.055 6.6628 21.969 12.828 3.8978-44.22 3.8964-44.222 6.6602-89.789-34.087-21.26-34.085-21.259-70.723-43.582zm-88.371 1.4883c-42.378 24.945-42.378 24.946-85.465 49.82-0.6378 49.323-0.639 49.322-1.3476 97.086 7.1574-4.1102 7.16-4.1113 14.672-8.3633 7.2992-4.4646 7.2984-4.4657 14.598-8.8594 0.7086-30.756 0.7064-30.754 1.2734-62.219 19.276-10.913 19.277-10.915 38.34-21.828 4.4646-2.6929 4.4646-2.6933 9-5.457 0.07 0.0708 0.07 0.0704 0.14 0.0704 4.1102-2.3386 4.1118-2.3366 8.293-4.7461 0.2834-17.717 0.2834-17.716 0.496-35.504zm-277.16 0.5664c-41.74 23.811-41.741 23.811-81.922 46.984 1.7008 47.976 1.6994 47.975 4.1796 94.676 6.5198-3.5433 6.5222-3.5432 13.184-7.0156 6.5906-3.8976 6.5886-3.8953 13.25-7.793-1.2046-30.402-1.2026-30.403-2.2656-61.371 18.213-9.9921 18.21-9.9911 36.777-20.125l8.789-5.1016c0.142 0.0708 0.14 0.0692 0.2812 0.21092 4.1102-2.4094 4.1114-2.4081 8.3634-4.6758-0.4252-17.929-0.4242-17.931-0.6368-35.789zm95.031 0.4961c-0.07 18.071-0.07 18.071-0.07 36 28.701 15.732 28.7 15.731 57.117 31.18-0.2126 31.748-0.2136 31.75-0.3554 62.719 14.598 8.0787 14.599 8.0781 28.914 16.086 0.9214-47.835 0.922-47.833 1.418-97.156-43.299-24.236-43.299-24.238-87.023-48.828zm-486 4.8203c2.5512 21.189 6.3782 42.021 11.481 62.359-5.811-27-5.8134-26.997-10.207-54.848-0.7088-3.4725-0.7066-3.4724-1.2736-7.5117zm1008.2 15.52c-0.3544 0.92126-0.3522 0.92194-0.7774 1.9141-3.0472 6.1654-3.047 6.1639-6.5194 12.684 5.1022 12.827 5.0998 12.827 5.8086 23.457l0.9922-3.9687c1.9134-8.5748 3.6132-17.291 5.1014-26.078-0.7794 3.9685-0.7778 3.969-1.6992 7.9375-0.496-7.2992-0.4968-7.2996-2.9062-15.945zm-995.03 2.5508c-0.3544 0.56694-0.3532 0.56588-0.6368 1.1328-1.9134 4.3937-1.9136 4.3959-3.4726 8.2227 11.48 22.323 11.478 22.322 26.785 45.566 12.614-14.032 12.615-14.033 29.34-29.766-2.7638-3.0473-2.7646-3.0454-5.3868-5.7383-5.3148-5.5276-5.3116-5.5305-10.414-11.129-9.7796 10.701-9.7806 10.702-17.859 20.906-10.063-15.024-10.064-15.022-18.355-29.195zm941.25 9.7773c-15.094 15.591-15.094 15.59-31.535 31.535-15.52-11.409-15.52-11.406-32.457-23.879-1.3464 1.2756-1.3494 1.2746-2.625 2.125-9.3542 7.5118-9.351 7.5116-18.918 15.023 27.496 18.638 27.493 18.636 51.375 35.219 25.016-24.307 25.017-24.304 46.914-48.328-1.9134-1.8425-1.9142-1.845-3.8984-3.6875-4.3938-3.7559-4.391-3.7558-8.8556-8.0078zm-945.5 3.7578c2.126 12.543 2.1246 12.543 4.1796 24.023 7.0158 14.457 7.015 14.455 15.59 29.266 5.1024 21.614 5.1032 21.617 10.914 42.594 5.5276 8.6457 5.5288 8.645 11.34 17.078-9-33.024-9-33.023-16.512-68.598-14.598-22.465-14.598-22.466-25.512-44.363zm990.07 4.25c-1.8424 12.402-1.8416 12.403-4.1094 25.301 3.6852 6.6614 3.6826 6.6622 5.3126 12.898-5.3858 20.268-5.386 20.266-11.48 39.258-0.142 0.99212-0.138 0.99168-0.3516 2.0547 3.7558-10.063 7.085-20.267 10.203-30.613 3.6852-13.323 3.685-13.321 7.0158-26.715-1.134-10.205-1.1332-10.207-6.59-22.184zm-854.79 1.7734c-1.2756 0.77952-1.2752 0.77962-2.5508 1.4883-8.433 6.0236-8.4318 6.0221-16.652 11.691 31.677 24.803 31.676 24.805 66.117 50.316 32.386-19.559 32.386-19.558 67.535-40.676-4.6772-3.0472-4.676-3.0476-9.1406-5.9531-9.4252-5.9528-9.4274-5.9524-18.711-12.047-22.039 14.173-22.036 14.172-42.941 27.637-22.465-16.512-22.467-16.512-43.656-32.457zm617.6 5.7383c-25.016 16.795-25.014 16.796-50.668 33.449-25.653-14.74-25.652-14.739-52.226-29.691l-3.543 1.9844c-12.827 7.6535-12.83 7.6517-25.656 15.234 41.315 23.173 41.315 23.176 80.93 45.145 39.543-25.512 39.544-25.512 77.457-50.953-4.252-2.4094-4.252-2.4103-8.5038-4.8906-8.7166-5.315-8.7182-5.3167-17.789-10.277zm206.36 1.2773c-21.756 23.528-21.757 23.529-46.844 47.836-6.1654 39.543-6.1646 39.54-13.605 76.887 4.6062-4.3228 4.6084-4.3211 9.2148-8.7148 4.4646-4.4646 4.465-4.4646 8.9296-9 4.748-23.598 4.7476-23.597 9.0704-48.188 15.52-15.591 15.519-15.591 29.621-30.898 1.9134-13.748 1.9126-13.749 3.6134-27.922zm-584.93 3.0469c-1.7008 1.063-1.7004 1.0626-3.543 2.0547-12.543 7.0158-12.544 7.0155-24.875 14.031 42.874 25.441 42.876 25.442 86.316 50.387 42.307-23.669 42.306-23.671 85.109-48.262-15.52-8.8583-15.518-8.856-31.25-17.785-27.779 16.37-27.78 16.371-55.488 32.387-28.134-16.228-28.136-16.23-56.27-32.812zm-315.57 1.4883c-17.079 15.094-17.078 15.095-30.117 28.418 7.3702 35.433 7.3712 35.434 16.371 68.883 1.559-1.2047 1.557-1.2043 3.2578-2.5508 1.6298-1.8425 1.6306-1.8444 3.4024-3.7578-5.315-22.181-5.3134-22.179-10.203-45.707 9.567-7.7953 9.5648-7.7969 20.762-16.797-1.8426-14.244-1.8428-14.244-3.4728-28.488zm938.8 6.3203-0.102 0.0586c-0.4962 2.1969-1.0666 4.3227-1.5626 6.5195 0.0002 0.0678-0.0002 0.0692 0 0.1368zm-884.58 0.83592c1.3466 15.378 1.344 15.378 2.8322 30.473 20.268 16.087 20.268 16.087 41.457 31.961 3.5432 27.354 3.5454 27.356 7.2304 53.293 11.551 8.7165 11.55 8.7154 23.598 17.645-5.6692-40.819-5.6692-40.817-10.488-84.188-33.591-24.732-33.59-24.735-64.629-49.184zm742.75 2.8359c-1.2756 15.661-1.274 15.663-2.6914 31.254 17.929 10.772 17.93 10.769 34.441 20.832-3.9686 26.22-3.9696 26.223-8.3632 51.238 7.4408 4.3937 7.4418 4.3937 14.387 8.5039 7.5828-37.984 7.5824-37.986 13.535-77.742-23.953-16.087-23.954-16.086-51.309-34.086zm-73.77 5.668c-37.984 24.803-37.987 24.806-77.602 49.68-3.0472 45.709-3.0442 45.706-6.375 88.793 6.8032-4.1811 6.8018-4.1816 13.676-8.4336 6.8032-4.3937 6.8046-4.3926 13.324-8.6445 2.5512-27.85 2.5494-27.85 4.7462-56.551 25.441-15.945 25.442-15.944 50.316-32.102 0.9922-16.228 0.9928-16.23 1.914-32.742zm-528.52 2.4102c-35.646 20.197-35.643 20.199-68.383 39.262 4.6772 43.37 4.6766 43.369 10.063 84.187 5.244-2.3386 5.2418-2.3383 10.273-5.0312 5.1732-2.9055 5.1738-2.9064 10.418-5.8828-3.1182-27-3.1186-27-5.9532-54.992 22.252-11.693 22.253-11.693 45.426-24.449-0.9922-16.441-0.9934-16.44-1.8438-33.094zm-245.2 2.0547c-1.134 6.1654-1.1324 6.1666-0.7072 11.34 1.9134 6.5906 3.897 13.11 6.0938 19.559-0.07-6.4488-0.072-6.4497 3.1172-14.387-4.6062-8.6457-4.6062-8.6456-8.5038-16.512zm332.64 1.2773c0.4962 17.22 0.499 17.218 1.1368 34.297 27.496 15.732 27.494 15.735 55.203 31.184 0.9922 29.693 0.9918 29.693 2.0548 58.465 14.457 8.1496 14.458 8.1489 28.773 16.086-1.063-44.362-1.0626-44.362-2.0546-91.062-42.803-24.236-42.806-24.236-85.113-48.969zm274.32 0.99218c-0.3542 17.22-0.356 17.222-0.7812 34.371 26.646 14.032 26.647 14.032 52.797 27.496-1.7006 29.339-1.702 29.338-3.332 57.613 12.898 6.5906 12.901 6.5913 25.586 12.898 3.189-43.157 3.1882-43.158 6.0938-88.938-39.331-21.118-39.332-21.119-80.363-43.441zm370.35 0.92188c-8.8584 15.165-8.8606 15.164-19.207 30.613-7.2282-7.2283-7.226-7.2298-16.297-15.309-7.5118 8.3622-7.5134 8.3621-15.309 16.512 15.095 12.472 15.095 12.474 25.938 22.75 15.661-24.165 15.663-24.166 27.781-47.41-1.1338-3.5433-1.1346-3.5421-2.9062-7.1563zm-464.32 0.21094c-43.299 23.882-43.297 23.882-85.746 46.984 0.9212 46.772 0.9214 46.773 1.9844 91.277 7.0158-3.5433 7.015-3.546 14.102-7.1602 6.874-3.8268 6.8732-3.825 14.102-7.7227-0.4962-28.913-0.4978-28.915-0.7814-58.82 27.992-14.669 27.994-14.667 56.27-29.762 0.07-17.291 0.07-17.293 0.07-34.797zm466.73 10.488c-11.905 23.315-11.907 23.315-27.355 47.055-9.9922 31.819-9.9918 31.821-21.543 61.23 2.9764-4.1811 2.9734-4.1822 5.879-8.3633 2.8346-4.252 2.8378-4.2519 5.6016-8.5039 7.6534-18.921 7.6532-18.92 14.527-38.691 6.378-10.488 6.3776-10.489 12.047-20.906 1.1338-2.2677 1.134-2.2675 2.4804-5.0313-0.2126 0.49606-0.2114 0.4961-0.14 0.4961l2.125-4.6797c3.3306-11.268 3.3316-11.267 6.3788-22.605zm-969.31 7.8672c-3.4724 7.5118-3.472 7.5121-3.5428 13.465 3.8976 11.48 8.2914 22.816 12.969 33.871-3.189-8.0079-3.1904-8.0066-6.3086-16.156 0.2126-2.1969 0.2144-2.1944 1.2774-4.8164 0.2126-1.1339 0.2116-1.1351 0.6368-1.8438 0.4252-0.70866 0.4258-0.70876 0.9218-1.4883-3.0472-11.268-3.0476-11.267-5.9532-23.031zm41.883 0.28124c-5.5984 4.9606-5.5996 4.9618-10.844 9.3555 23.173 24.803 23.174 24.804 49.394 49.891 21.827-13.535 21.825-13.534 47.195-29.125-11.48-9.0709-11.478-9.0726-22.746-18.285-15.661 10.701-15.662 10.701-29.906 20.48-17.15-16.157-17.149-16.159-33.094-32.316zm-12.047 13.891c2.622 12.969 2.619 12.969 5.3828 25.441 1.9134 2.3386 1.9158 2.3372 3.6876 4.1797 0.142-0.0708 0.14-0.0704 0.2108-0.0704 6.8032 7.5118 6.8036 7.5139 13.961 15.238 6.1654 6.4488 6.1666 6.4468 12.332 12.258 5.7402 22.394 5.7382 22.394 12.258 43.938 8.8584 8.5748 8.8612 8.5764 18.145 17.293-9.7796-33.591-9.7796-33.591-18-69.449-25.512-24.661-25.512-24.663-47.977-48.828zm809.22 0.1406c-21.26 16.724-21.26 16.728-43.441 33.594-20.339-11.764-20.338-11.765-42.094-23.812-13.11 8.6457-13.111 8.6473-26.363 17.293 34.37 18.567 34.371 18.566 65.836 35.148 33.52-25.157 33.52-25.156 64.984-50.668-9.2126-5.7402-9.2132-5.7437-18.922-11.555zm73.488 5.0312c-2.5512 13.606-2.5492 13.607-5.2422 26.859 1.5592 0.70866 1.556 0.70988 2.9024 1.8437 0.07 0 0.072-0.001 0.3554-0.35546 4.6064 3.189 4.6074 3.1905 8.8594 6.3086 3.1182 2.5512 3.1168 2.5509 6.1642 4.5351-6.378 21.118-6.3788 21.117-13.395 41.172 2.9764 1.7717 2.9772 1.7741 5.3866 3.1914 11.622-29.906 11.622-29.908 21.543-62.223-11.268-9.4961-11.267-9.4974-26.574-21.332zm-681.73 6.7344c-12.047 6.6614-12.05 6.6628-23.672 13.324 38.764 25.37 38.765 25.368 78.875 50.312 37.417-19.63 37.419-19.628 76.82-40.746-15.165-8.8583-15.168-8.8599-30.191-17.789-25.299 14.244-25.297 14.246-49.816 27.781-26.22-16.299-26.22-16.3-52.016-32.883zm727.44 1.0625c-0.4252 0.92126-0.4218 0.92248-0.9178 1.8437-3.756 7.2992-3.7582 7.299-7.7266 14.527 1.2756 3.2599 1.2772 3.2596 1.2772 5.5274 2.6222-5.9528 5.0286-11.976 7.3672-18.07 0.3544-2.0551 0.3544-2.0565 0-3.8281zm-98.715 4.1094c-31.323 24.874-31.322 24.876-65.055 49.75-6.3072 39.472-6.308 39.473-13.395 75.898 5.811-4.0394 5.8106-4.0427 11.551-8.082 5.9528-4.5354 5.9518-4.5332 11.621-8.7852 4.9608-23.598 4.9614-23.6 9.4258-48.262 14.528-10.701 14.528-10.701 28.914-21.969 3.189-2.5512 3.1894-2.5504 6.4492-5.1016l0.07 0.0702c3.189-2.622 3.1882-2.6224 6.0936-4.9609 2.3386-14.315 2.34-14.314 4.3244-28.559zm-255.4 0.5664c-27.567 16.512-27.567 16.512-54.922 32.457-27.354-14.598-27.352-14.596-55.344-29.762-14.74 8.1496-14.742 8.1489-29.269 16.086 42.803 23.173 42.803 23.173 85.039 45.07 41.598-23.598 41.6-23.596 83.34-48.258-14.457-7.6535-14.458-7.6567-28.844-15.594zm-596.55 0.92188c-0.2836 0.1418-0.2814 0.144-0.2814 0.71094-0.7794 1.9134-0.7818 1.9114-1.207 3.7539 13.252 24.236 13.252 24.238 29.977 48.758 8.7874-6.4488 8.7882-6.4486 21.898-15.023-2.7638-2.9055-2.7658-2.9076-5.7422-6.2383-5.5984-5.811-5.5986-5.8084-10.984-11.832-7.4408 6.2362-7.4406 6.2347-13.039 11.691-11.055-16.016-11.054-16.017-20.621-31.82zm123.31 3.543c-25.795 14.953-25.797 14.953-47.836 27.992 8.1496 36.283 8.1506 36.285 17.859 70.301 2.9054-1.6299 2.9042-1.6307 6.164-2.9063 3.4016-1.4173 3.4008-1.4186 6.5898-3.332-5.6692-22.465-5.6666-22.465-10.84-45.992 10.276-5.3858 10.272-5.3831 21.398-10.84 2.622-1.6299 2.6218-1.6301 5.5274-2.9766 2.693-1.2756 2.695-1.2769 5.246-2.8359-2.055-14.457-2.0542-14.457-4.1092-29.41zm-123.95 3.8984c3.9684 9.9921 3.9668 9.9934 8.2188 19.844 8.0078 15.449 8.0094 15.447 17.293 30.754 8.6456 17.433 8.6444 17.433 17.644 32.953 5.7402 8.4331 5.742 8.4352 11.766 16.727-13.748-24.591-13.75-24.59-26.293-52.512-16.157-24.307-16.156-24.309-28.629-47.766zm196.16 4.9609c1.559 15.591 1.5588 15.589 3.047 30.684 3.4014 2.2677 3.4008 2.2696 6.5898 4.2539 0.4252 0.1418 0.428 0.1422 0.6406-0.0704 11.48 7.6535 11.478 7.6511 23.242 15.305 9.6378 5.9527 9.6378 5.9529 19.488 11.977 3.1182 26.362 3.1192 26.363 6.379 51.379 12.968 7.937 12.97 7.938 26.363 15.875-4.4646-38.693-4.4656-38.693-8.3632-80.434-39.472-24.378-39.473-24.378-77.387-48.969zm518.88 2.9766c-1.2756 15.803-1.2762 15.804-2.9062 31.395 3.3308 1.3465 3.3322 1.3439 6.3086 2.832 0.2834-0.2126 0.283-0.20982 0.5664-0.35156 10.276 5.3858 10.276 5.3865 20.41 10.418 8.0788 4.0394 8.0774 4.0371 16.156 7.793-3.8268 25.654-3.8278 25.654-7.8672 49.961 9.9922 4.1811 9.9916 4.1833 19.559 8.2226 7.1574-36.921 7.16-36.922 13.184-76.395-31.323-15.945-31.324-15.946-65.41-33.875zm225 0.85156c-3.8268 10.559-3.8272 10.559-7.9374 21.047 1.063 1.063 1.062 1.0609 1.1328 2.2656 2.9764-5.9528 5.74-12.046 8.5038-18.141-0.07-2.1969-0.07-2.1955-1.6992-5.1719zm-310.89 4.7461c-41.598 23.811-41.597 23.811-83.691 46.984-1.4882 42.945-1.4884 42.946-2.9766 82.914 6.945-3.5433 6.9436-3.5421 14.172-7.1563 6.7322-3.7559 6.7326-3.7581 13.961-7.7266 1.3466-25.937 1.3456-25.936 2.6212-53.078 18.638-10.063 18.641-10.061 37.137-20.195 4.3938-2.5512 4.391-2.5504 8.8556-5.1016 0 0.0708 0 0.0708 0.2852 0 3.9684-2.2677 3.9672-2.2708 8.1484-4.6094 0.7794-15.874 0.7796-15.874 1.4882-32.031zm-269.36 1.7734c-39.685 20.48-39.684 20.478-77.598 39.328 3.8268 41.953 3.829 41.954 8.2228 80.859 5.7402-2.6929 5.7392-2.6921 12.117-5.1016 5.9526-2.9055 5.9534-2.9059 11.906-5.9531-2.126-25.441-2.1268-25.442-4.3946-52.301 17.079-8.0787 17.077-8.0758 34.723-16.367l8.3632-4.2539 0.211 0.1406c3.9684-1.9843 3.9694-1.9806 7.8672-3.9648-0.7796-16.087-0.7802-16.088-1.418-32.387zm541.56 1.6289c-15.803 16.37-15.8 16.371-32.879 32.883-13.252-7.1575-13.251-7.1595-28.062-15.238-1.4174 1.1339-1.417 1.1345-2.5508 1.9141-9.4962 7.6535-9.4978 7.6545-19.277 15.379 23.953 12.047 23.953 12.047 44.008 22.039 26.008-25.228 26.008-25.23 49.039-50.316-1.7006-0.77954-1.6998-0.7791-3.1172-2.0547-3.4724-2.1968-3.475-2.196-7.16-4.6055zm-449.15 0.1406c-0.07 16.512-0.072 16.514 0.14 32.672 27.638 14.032 27.638 14.032 54.922 27.496-0.496 27.425-0.4934 27.425-0.8476 53.574 13.748 6.5197 13.747 6.5205 27.07 12.898 1.4882-40.039 1.4862-40.039 2.7618-82.984-41.669-21.26-41.669-21.263-84.047-43.656zm459.57 10.488c-22.819 24.661-22.818 24.661-48.684 49.535-10.347 31.748-10.345 31.748-21.684 60.023 4.4644-3.9685 4.4612-3.9684 8.9258-8.0078 4.677-4.4646 4.677-4.4634 9-8.6445 7.5118-18 7.5148-18 14.601-37.559 15.874-15.945 15.874-15.946 30.543-31.891 3.685-11.48 3.6828-11.481 7.297-23.457zm-897.8 4.2539c0 0.0708 0 0.0702-0.144 0.0702 3.0472 6.1654 6.1658 12.187 9.4258 18.211-0.07-0.56692-0.07-0.56474 0.3554-0.77734-5.1024-8.8583-5.1014-8.8582-9.6368-17.504zm40.039 4.3945c-13.465 7.937-13.467 7.9367-22.75 13.535 12.543 28.488 12.544 28.488 26.363 53.574 0.7796 0.0708 0.778 0.0704 1.6992 0.0704 1.063-0.1418 1.0654-0.1428 2.1994-0.35548-8.6458-17.362-8.6456-17.361-16.512-35.645 7.0158-3.1181 7.014-3.1197 15.73-7.3008-3.5432-11.906-3.5414-11.903-6.7304-23.879zm875.55 1.4141c-9.9922 16.157-9.9912 16.157-21.117 32.031-4.5354-2.126-4.5362-2.1224-10.914-5.4531-7.7954 8.5748-7.7952 8.5725-16.016 17.289 11.055 4.4646 11.055 4.4644 18 6.0234 14.315-20.551 14.313-20.549 26.289-40.816 1.3464-2.622 2.6926-5.1754 4.039-7.7266 0-0.6378 0-0.639-0.2812-1.3477zm-805.25 0.64064c-1.063 0.70866-1.0624 0.70594-2.0546 1.3437-7.5118 3.9685-7.51 3.9707-14.738 7.7266 32.102 25.299 32.103 25.297 66.402 50.242 28.984-13.535 28.984-13.534 61.016-29.125-4.5354-2.9055-4.5348-2.9064-9.0702-5.8828-9.3544-5.8819-9.355-5.8809-18.426-11.621-20.339 10.346-20.342 10.347-39.121 19.984-22.252-16.016-22.252-16.014-44.008-32.668zm-19.062 13.746c2.8346 13.11 2.8338 13.109 5.5976 25.652 20.339 15.945 20.342 15.948 41.531 31.609 5.4568 21.614 5.453 21.615 11.477 41.953 11.339 8.0787 11.34 8.0792 22.82 15.945-8.8584-31.535-8.8572-31.536-16.652-66.402-33.378-24.094-33.38-24.096-64.773-48.758zm612.14 1.207c-24.803 16.157-24.807 16.158-50.035 31.961-23.811-11.551-23.81-11.553-48.613-23.812-1.7716 1.063-1.7706 1.0626-3.6132 2.0547-12.472 7.0866-12.472 7.0853-25.086 14.172 38.693 18.638 38.693 18.64 75.473 35.223 38.41-23.598 38.41-23.598 75.899-48.047-3.6852-1.9843-3.6884-1.9856-7.586-3.8281-8.0788-3.8976-8.0752-3.8959-16.438-7.7227zm-691.37 0.5664-0.5664 0.35156c3.3308 5.9528 6.7302 11.908 10.273 17.719l0.07-0.0704c-5.0314-8.8583-5.0292-8.8583-9.7774-18zm895.39 0.99218c-10.63 17.504-10.633 17.502-22.609 34.723-8.7874 14.315-8.8556 14.385-17.856 27.141 6.6616-8.7165 13.038-17.713 19.133-26.926 7.5826-11.339 14.671-22.961 21.332-34.938zm-107.43 3.1875c-2.6222 13.535-2.6224 13.537-5.457 26.789 15.59 6.4488 15.589 6.4456 29.691 11.902-6.2364 20.551-6.2348 20.555-13.18 40.043 6.0236 1.5591 6.0226 1.557 11.621 2.7617 11.409-28.772 11.41-28.77 21.473-60.66-20.197-9.2835-20.196-9.2847-44.148-20.836zm-460.14 4.9609c-1.9134 0.70866-1.913 0.7082-3.543 1.5586-11.693 5.8819-11.693 5.882-23.527 11.48 41.598 23.244 41.6 23.246 83.34 45.285 40.11-19.63 40.11-19.631 81-40.82-14.882-7.7244-14.882-7.7237-29.977-15.59-26.787 14.173-26.786 14.174-52.723 27.852-27.496-14.74-27.5-14.742-54.57-29.766zm390.05 6.875c-37.63 24.024-37.632 24.023-76.254 47.125-4.8188 37.063-4.8178 37.062-10.133 70.582 6.3072-3.4724 6.3074-3.4712 12.969-7.1563 6.1654-3.685 6.164-3.6844 12.684-7.582 3.8976-21.685 3.8998-21.685 7.7266-45 24.803-14.882 24.799-14.882 48.965-30.047 2.0552-13.748 2.0588-13.749 4.043-27.922zm-682.66 0.92188c-4.3228 2.1969-4.3218 2.1965-8.1484 4.0391 23.598 24.732 23.598 24.729 50.031 49.391 17.787-5.9527 17.787-5.9525 39.047-14.527-11.268-8.6457-11.267-8.6451-22.535-17.574-13.252 5.8819-13.253 5.8837-24.875 10.773-17.362-15.945-17.362-15.944-33.519-32.102zm177.45 3.6133c-32.315 15.024-32.313 15.025-61.723 27.852 7.7244 35.079 7.7242 35.078 16.016 66.613 4.4646-1.2756 4.4618-1.2746 8.8554-2.6211 4.5354-1.5591 4.5382-1.5615 9.1446-3.1914-4.819-20.976-4.8218-20.976-9.6406-43.582 19.913-7.7953 19.915-7.7957 41.246-16.441-1.9842-14.102-1.985-14.101-3.8984-28.629zm-186.09 3.1172c4.3938 10.276 4.3948 10.275 8.8594 20.055 2.0552 2.2677 2.0532 2.2669 3.754 4.1094 0.07 0 0.07 0.00054 0.14-0.0704 6.874 7.4409 6.8764 7.4402 14.176 15.094 6.0946 6.0236 6.092 6.0244 12.328 11.906 8.2914 16.087 8.2918 16.086 17.434 31.039 8.7166 7.8661 8.7166 7.866 17.504 15.52-13.465-22.89-13.464-22.888-25.582-49.25-25.795-24.236-25.794-24.237-48.613-48.402zm269.64 4.1797c1.1338 14.882 1.135 14.883 2.3398 29.41 26.504 14.102 26.503 14.105 53.078 27.711 1.4882 24.024 1.4866 24.023 3.1874 46.629 13.748 6.5905 13.751 6.5908 27.074 12.969-1.9842-34.583-1.9866-34.585-3.6874-72.711-41.032-21.402-41.032-21.402-81.992-44.008zm262.35 2.2695c-0.7086 14.882-0.7088 14.883-1.4882 29.41 24.732 10.913 24.73 10.913 48.754 21.047-2.622 23.669-2.6202 23.67-5.2422 45.852 11.622 4.3228 11.622 4.32 22.961 8.3594 5.244-33.661 5.2424-33.66 9.707-70.723-36.213-16.087-36.211-16.087-74.691-33.945zm-89.715 2.4102c-41.457 20.551-41.457 20.55-81.426 39.613 1.2756 38.197 1.2742 38.198 3.1874 72.852 6.378-2.5512 6.3782-2.5537 12.969-5.1758 6.5198-2.9055 6.52-2.9031 12.969-5.8086-0.6378-22.748-0.6362-22.749-1.2032-46.914 26.362-12.047 26.36-12.049 53.289-24.734-0.142-14.669-0.14-14.667 0.2148-29.832zm382.61 0.77734c-3.9684 10.488-3.97 10.489-8.293 20.836 1.063 0.2126 1.0654 0.21318 2.1992 0.42578 0.2836-0.35432 0.2808-0.35546 0.3516-0.35546 3.4016 0.70866 3.4042 0.7082 6.168 1.5586 2.4094-0.0708 2.407-0.0708 4.3204 0-9.4252 15.307-9.4258 15.31-18.922 28.633 0.3544-0.2126 0.4258-0.28574 0.922-0.71094 3.4724-4.1811 6.946-8.3608 10.348-12.684 11.055-15.236 11.056-15.238 21.402-32.316-6.945-1.6299-6.945-1.6308-18.496-5.3867zm-831.05 1.6328c8.1496 12.26 16.722 24.164 25.793 35.645 4.677 2.126 4.7494 2.125 13.324 1.6289-2.9056-2.8346-2.9076-2.8328-5.7422-5.7383-5.5984-5.811-5.5974-5.8129-11.125-11.766-4.6772 0.92126-4.676 0.92072-7.6524 0.5664-7.5826-10.205-7.6528-10.273-14.598-20.336zm765.28 7.3672c-21.118 16.087-21.119 16.087-42.945 31.961-18-7.1575-17.997-7.1556-37.344-15.234-12.898 8.2205-12.899 8.2187-25.797 16.227 30.685 12.047 30.684 12.047 58.18 21.543 32.953-23.598 32.954-23.598 63.852-47.551-7.6536-3.4724-7.654-3.4729-15.945-6.9453zm16.867 10.773c-30.827 23.669-30.828 23.669-63.852 46.984-9.1416 29.268-9.14 29.266-19.203 54.707 5.74-3.685 5.7396-3.6844 11.055-7.0859 5.5984-3.8268 5.5968-3.825 11.195-7.7227 6.7322-16.37 6.7346-16.371 13.184-34.441 14.244-10.063 14.241-10.062 28.344-20.621 3.0474-2.2677 3.0482-2.268 6.379-4.9609l0.07 0.0704c3.0472-2.3386 3.047-2.3406 6.0234-4.75 3.4724-10.913 3.474-10.912 6.8048-22.18zm-682.8 8.0078c-21.614 8.0079-21.612 8.0059-39.754 13.25 11.906 26.575 11.904 26.578 25.156 49.609 2.4804 0.35432 2.4802 0.35436 5.0314 0.49608 2.2676-0.2126 2.268-0.21428 4.9608-0.28514-7.866-15.591-7.8664-15.591-15.449-32.883 8.2206-2.0551 8.2228-2.0543 17.719-4.1094l4.25-1.6992 0.3554 0.28126c2.0552-0.77954 2.0548-0.77738 4.5352-1.2734-3.4724-11.48-3.474-11.481-6.8046-23.387zm722.41 0.4961c-15.803 15.52-15.801 15.519-32.738 31.039-10.488-1.7717-10.488-1.7731-22.535-4.8203-1.2046 0.8504-1.206 0.85274-2.3398 1.7031-9.496 7.2992-9.4944 7.2984-18.707 14.102 19.63 4.1811 19.629 4.1826 35.078 5.8125 25.654-23.457 25.653-23.459 48.613-47.199-0.9922-0.1418-0.9918-0.1396-2.0548-0.28126-2.551-0.0708-2.5526-0.072-5.3164-0.35546zm-630.21 1.0625c-10.913 4.5354-10.913 4.5371-21.543 8.7891 37.842 23.386 37.841 23.382 76.25 45.422 33.874-13.535 33.876-13.534 70.23-29.125-14.386-7.6536-14.386-7.6528-28.914-15.59-23.528 10.559-23.527 10.56-45.637 20.41-25.441-14.74-25.442-14.741-50.387-29.906zm636.73 2.125c-22.606 23.386-22.605 23.388-47.621 46.207-13.961 20.693-13.96 20.693-29.125 37.488 4.3936-3.6142 4.392-3.6168 8.7148-7.1602l8.5038-7.3672c10.134-10.913 10.134-10.916 19.488-23.176 15.52-14.811 15.52-14.812 29.977-29.906 5.0314-7.7244 5.031-7.7237 10.062-16.086zm-284.46 8.7891c-26.15 14.244-26.148 14.242-52.227 27.777-25.583-11.48-25.584-11.478-51.805-23.809-13.677 6.7323-13.677 6.7303-27.566 13.25 40.252 18.709 40.253 18.709 79.371 35.504 39.472-19.772 39.471-19.771 79.227-41.031-13.252-5.7402-13.252-5.7386-27-11.691zm-515.41 0.21094c4.4076 5.4296 8.897 10.788 13.523 16.051 4.108 2.4368 4.1604 2.4543 10.148 3.8633-5.0314-8.4331-5.0336-8.433-9.7108-17.008-9-0.35432-9.0004-0.35506-13.961-2.9062zm13.523 16.051c-0.024-0.014-0.034-0.0206-0.058-0.0352l1.5626 1.7734c-0.5102-0.57308-0.9978-1.1625-1.504-1.7383zm124.95-13.922c2.4804 12.472 2.4818 12.47 4.8204 24.305 3.3308 1.9843 3.33 1.984 6.5898 4.0391 0.142-0.1418 0.144-0.1394 0.2148-0.28124 11.339 7.0157 11.336 7.0144 22.391 13.676 9.3542 5.315 9.3566 5.3145 18.711 10.559 4.3938 19.559 4.3932 19.56 9.0704 37.418 12.189 6.5197 12.19 6.5194 24.875 13.039-6.3072-27.354-6.3068-27.353-12.047-58.676-37.913-21.543-37.916-21.543-74.625-44.078zm487.14 5.1719c-2.126 12.614-2.1258 12.615-4.5352 24.945 2.9764 0.77954 2.9756 0.77742 5.5976 1.7695l0.3556-0.21094c9.2126 3.189 9.2126 3.1877 18 6.1641 7.37 2.126 7.3682 2.1285 14.242 4.1836-5.315 18.78-5.3156 18.776-10.914 35.926 8.3622 1.5591 8.3616 1.5592 16.086 2.9766 9.9922-25.724 9.9916-25.722 19.063-55.344-27.284-9.1417-27.28-9.1424-57.895-20.41zm159.3 7.793c-1.4882 1.3465-1.4888 1.3477-3.4022 2.3398-7.8662 8.0787-7.8626 8.0775-15.445 15.66 2.9764-1.2756 3.046-1.2719 5.668-3.4687 4.4646-4.748 8.8568-9.5706 13.18-14.531zm-239.95 1.418c-39.827 20.622-39.826 20.624-79.156 39.758-2.2678 32.457-2.2676 32.455-4.5352 60.731 6.307-2.5512 6.3068-2.5488 13.039-5.3125 6.5906-2.8347 6.5892-2.8373 12.684-5.6719 2.126-18.638 2.1284-18.639 4.1836-38.906 17.504-8.2913 17.503-8.2885 35.078-16.863 4.2518-2.126 4.2512-2.1285 8.078-4.1836l0.3556-0.0704c3.8976-1.9134 3.8958-1.9142 7.7226-3.8984 1.4882-12.685 1.4878-12.684 2.5508-25.582zm-253.06 2.9062c-36.779 14.882-36.779 14.884-71.008 27.781 5.5276 31.465 5.5266 31.462 11.621 58.887 5.3858-1.2047 5.3876-1.2043 10.773-2.5508 5.315-1.559 5.314-1.557 10.629-3.2578-3.2598-18.213-3.2602-18.215-6.4492-38.199 15.449-5.315 15.451-5.314 31.254-11.125 4.1102-1.4173 4.1112-1.4175 7.8672-2.9766 0 0.0708 0 0.0736 0.3516 0.1446 3.614-1.3465 3.6162-1.3483 7.2304-2.7656-1.3464-12.827-1.3482-12.827-2.2696-25.938zm-216.28 0.21484-1.8438 0.56642c-6.2362 1.7008-6.238 1.7004-12.262 3.0469 31.394 23.315 31.395 23.316 64.277 45.426 24.732-5.8819 24.732-5.8833 52.512-14.316-4.181-2.4094-4.18-2.4086-8.6446-5.1016-9-5.2441-9.0026-5.2447-17.648-10.418-17.646 5.811-17.643 5.81-33.801 10.629-21.614-14.669-21.613-14.667-42.59-29.832zm303.16 2.7617c-0.07 13.323-0.07 13.322 0.2852 26.148 25.724 10.984 25.725 10.987 50.953 21.191-0.8504 20.48-0.8528 20.479-1.207 39.187 12.118 4.3937 12.118 4.3943 24.519 8.4336 1.8426-28.276 1.8416-28.274 3.6134-60.66-38.339-16.228-38.337-16.23-78.164-34.301zm-357.88 1.418c22.89 22.606 22.89 22.605 48.473 44.645 12.898 2.6221 12.898 2.6245 29.976 2.6953-10.913-7.7244-10.912-7.7276-21.684-15.594-10.275 0.4252-10.275 0.42798-19.062-0.35156-16.512-14.244-16.512-14.246-32.527-29.27-2.8346-0.8504-2.8372-0.84942-5.1758-2.125zm0.4962 0.99218c1.1338 1.2756 1.7728 1.9833 2.3398 2.6211 18 19.346 37.486 37.348 58.25 53.789-6.9448-6.0236-6.9418-6.0244-13.887-12.898-24.236-21.189-24.238-21.189-46.703-43.512zm38.695 1.2734c3.8978 9.3543 3.8966 9.3544 8.1486 18.496 19.488 14.315 19.486 14.317 39.754 28.207 7.441 14.102 7.4418 14.1 14.883 26.289 10.63 6.6614 10.631 6.6639 21.402 13.184-11.197-18.85-11.198-18.853-21.828-42.168-31.961-21.472-31.958-21.472-62.359-44.008zm707.81 7.5859c-2.6928 2.1968-2.6922 2.1943-6.0936 3.8242-5.5276 6.8031-5.5278 6.8039-10.984 12.898 0.4252-0.28348 0.4274-0.28408 1.207-0.92188l0.3516-0.35548c0.2834-0.2126 0.3544-0.28068 0.496-0.35156v-0.0702c5.1024-4.8898 10.134-9.9211 15.023-15.023zm-55.769 1.4141c-3.9686 9.9921-3.968 9.9944-7.582 19.207 12.614 1.4173 12.612 1.4174 23.809 1.4883-8.504 13.323-8.5052 13.323-17.363 24.945 4.1812-1.2756 4.181-1.2752 8.0078-3.0469 15.024-17.008 15.026-17.009 28.703-37.844-15.945-0.99212-15.944-0.9941-35.574-4.75zm-87.168 7.4414c-23.528 13.961-23.528 13.961-47.48 27.426-21.473-7.0866-21.47-7.0848-43.793-15.234-1.8426 0.85038-1.8416 0.84826-3.6134 1.7695-11.622 5.811-11.623 5.8101-23.316 11.621 34.724 12.189 34.724 12.189 67.109 21.969 36.496-19.772 36.497-19.77 72.426-41.172-3.3308-0.99212-3.3288-0.99168-6.7304-2.0547-7.0866-2.1968-7.0898-2.1982-14.602-4.3242zm23.105 9.9219c-36 20.976-36.003 20.978-72.074 40.254-6.7322 25.016-6.7292 25.015-13.887 45.637 5.811-2.6221 5.8106-2.6224 12.047-5.457 5.6692-2.7638 5.6666-2.762 11.832-5.7383 5.1732-13.536 5.1734-13.536 9.9922-28.914 23.315-12.402 23.317-12.402 46.207-25.441 2.9764-9.9213 2.9774-9.9225 5.8828-20.34zm-360.5 4.3945c-1.7718 0.49606-1.7742 0.495-3.1914 1.1328-10.913 3.9685-10.912 3.9701-21.188 7.7969 38.835 18.85 38.833 18.851 77.668 35.93 36.496-13.606 36.497-13.607 74.34-29.41-13.819-5.811-13.819-5.8118-27.992-11.906-24.661 10.701-24.662 10.701-48.473 20.48-25.654-11.622-25.652-11.622-51.164-24.023zm454.25 2.1953c-12.189 10.63-12.399 10.774-25.297 21.262-7.37 3.8976-7.3722 3.8975-16.23 6.5195-1.2048 0.85038-1.2048 0.84826-2.4804 1.7695-8.3622 5.6693-8.3606 5.6728-17.219 11.555 11.835-3.4016 11.832-3.4049 21.328-8.5781 13.819-10.205 27.142-21.047 39.898-32.527zm-559.7 0.0704c-28.205 7.7244-28.205 7.7252-53.434 12.898 10.559 23.528 10.557 23.528 21.258 42.379 3.8268 0.3544 3.8282 0.3555 7.3008 0.3555 3.8976 0.1418 3.898 0.139 7.4414-0.1446-6.3072-12.968-6.3062-12.966-12.613-27.848 16.937-2.9055 16.934-2.907 35.359-6.8047-2.6928-10.205-2.6904-10.206-5.3124-20.836zm523.7 2.1289c-20.126 14.032-20.126 14.03-41.031 27.637-14.882-1.8425-14.882-1.8406-31.535-4.7461-12.189 6.9449-12.188 6.9413-24.094 13.461 25.937 4.1811 25.935 4.182 48.754 5.3867 31.039-19.772 31.042-19.773 60.664-40.891-6.0236-0.35434-6.0256-0.3516-12.758-0.84766zm13.109 2.7617c-29.41 20.835-29.408 20.836-60.164 40.324-11.905 16.441-11.905 16.44-24.094 28.133 4.9606-2.6221 4.9612-2.6196 9.9218-5.3125 5.315-2.9764 5.3134-2.9779 10.203-5.8125 8.433-7.7953 8.4318-7.7947 16.652-17.574 13.181-8.4331 13.183-8.4358 26.223-17.152 3.2598-2.3386 3.2584-2.3355 6.164-4.3906v0.0704c2.9054-2.0551 2.907-2.0576 5.8124-4.1836 4.3938-6.5197 4.3916-6.5189 9.2814-14.102zm-459.85 5.8828c1.5592 10.913 1.556 10.914 3.3986 21.473 24.449 11.197 24.452 11.195 49.113 21.684 1.9134 16.016 1.913 16.018 4.5352 30.262 12.189 4.4646 12.188 4.4634 24.094 8.6445-2.4094-21.331-2.4086-21.329-4.6054-47.266-37.913-16.441-37.913-16.443-76.535-34.797zm-186.73 1.3476c7.8662 8.0079 7.9364 8.0785 15.59 14.527 6.3778 4.9606 12.968 9.7062 19.559 14.312-8.4332-6.6614-8.4324-6.6612-16.582-14.527 6.6616 2.126 6.6634 2.1257 13.75 3.543 1.7008 0.2126 1.7012 0.21374 3.4728 0.35546 1.7716 0.1418 1.7718 0.1434 3.4726 0.28516-4.181-7.0157-4.1816-7.015-8.4336-14.598-17.22-0.56692-17.222-0.56772-30.828-3.8984zm429.02 1.8399c-0.9922 11.055-0.9896 11.058-2.336 21.688 22.394 6.5905 22.391 6.5891 43.793 12.187-3.5434 15.803-3.5426 15.804-7.582 29.836 10.063 1.6299 10.062 1.6273 20.125 2.832 6.3778-20.551 6.3792-20.55 12.828-45.707-32.386-9.1417-32.387-9.143-66.828-20.836zm-83.195 3.6875c-37.701 15.236-37.702 15.234-74.34 28.344 2.1968 25.937 2.197 25.938 3.9688 47.34 5.8818-1.3464 5.8804-1.3444 11.691-2.7617 5.811-1.559 5.8144-1.5615 11.555-3.1914-0.9922-14.386-0.9944-14.386-1.7032-30.543 24.165-8.2204 24.165-8.2182 48.613-17.289 0.3544-10.701 0.3566-10.702 0.2148-21.898zm-233.86 12.047c-9.496 1.9134-9.496 1.9131-18.496 3.543 35.079 19.063 35.081 19.064 70.727 36.355 29.693-5.8818 29.692-5.8827 61.582-14.387-13.252-5.8819-13.255-5.8815-26.648-12.047-20.764 5.9527-20.762 5.95-40.18 10.84-23.74-11.835-23.74-11.832-46.984-24.305zm-83.48 3.0469c28.913 18.992 28.915 18.992 59.316 36.496 19.63 2.622 19.629 2.6211 42.66 2.6211-4.0394-1.9843-4.0394-1.9845-8.0078-3.9688-7.8662-3.9685-7.8644-3.9668-16.227-8.2187-14.173 0.5669-14.174 0.5658-27.426-0.3555-19.984-11.764-19.984-11.762-39.543-24.234-0.9922-0.35432-0.995-0.35546-1.6328-0.35546-4.8898-0.99212-4.8886-0.99226-9.1406-1.9844zm-0.922 0.42578c5.1734 5.0315 5.175 5.0326 10.277 9.3555 18 11.693 18 11.692 36.496 22.605 2.5512 1.7008 2.5498 1.6999 5.668 3.6133 6.2362 3.4016 12.614 6.7329 18.992 9.9219-6.9448-4.252-6.9456-4.2509-13.394-9.6368-29.551-17.079-29.551-17.08-58.039-35.859zm63.426 2.5508c3.189 8.0787 3.1906 8.0769 6.8048 15.73 3.0472 1.6299 3.047 1.6318 6.0234 3.2617 0.07-0.071 0.07-0.073 0.07-0.2148 10.417 5.5275 10.419 5.5288 20.836 10.844 8.3622 4.1103 8.3604 4.1125 17.219 8.2227 5.3148 10.772 5.3144 10.77 11.055 19.699 11.197 4.5354 11.197 4.536 22.535 8.9297-7.7954-13.181-7.7956-13.181-14.953-31.039-35.008-16.866-35.007-16.867-69.59-35.434zm533.62 0.35548c-9.496 5.1732-9.494 5.1715-21.258 8.7148-4.5354 5.1023-4.536 5.1035-9.4258 9.8515 6.6614-2.8346 6.6616-2.8339 12.473-6.0937 6.1654-4.0394 12.258-8.2207 18.211-12.473zm-92.977 6.8008c-2.8346 8.2913-2.8334 8.2912-5.668 16.016 2.2678 0.2835 2.2674 0.2835 4.5352 0.4961l0.4258-0.2109c7.8662 0.7086 7.8682 0.707 15.238 1.2031 6.0946 0.071 6.093 0.07 11.691 0.07-6.5904 10.205-6.5924 10.208-13.75 18.641 6.6614-1.4882 6.6646-1.4906 12.617-3.1914 12.118-11.906 12.118-11.906 23.527-28.418-22.606-0.99212-22.609-0.9913-48.617-4.6055zm-98.574 2.2695c-24.236 10.842-24.236 10.841-47.977 20.691-23.173-7.2283-23.172-7.2287-47.125-15.449-12.543 4.6772-12.541 4.68-25.297 9.1445 36.709 12.402 36.707 12.398 71.219 22.391 36.071-13.89 36.072-13.887 72.781-29.902-11.693-3.2598-11.696-3.2608-23.602-6.875zm-386.86 3.2578c6.4488 4.1811 12.968 8.2229 19.559 12.191 0.9212 0.4961 0.919 0.4962 1.7694 0.9922-10.063-6.0945-10.063-6.0952-19.984-12.402zm552.89 4.8204c-2.622 1.4881-2.6196 1.4867-5.8086 3.1875-18.142 10.559-18.141 10.561-37.062 20.695-11.764 3.8976-11.764 3.8963-25.016 6.6601-11.126 5.0315-11.127 5.0304-21.828 9.6367 17.22-3.5433 17.219-3.5405 32.172-8.8554 19.913-9.2835 39.118-19.702 57.543-31.324zm-140.1 1.914c-36.638 15.52-36.638 15.52-72.496 28.984-2.9056 18.78-2.903 18.779-5.3126 32.598 5.386-1.3464 5.3844-1.3471 11.195-2.9062 5.811-1.6299 5.8106-1.6312 11.551-3.332 2.4804-9.4252 2.4806-9.4226 4.961-20.832 15.803-5.6693 15.804-5.6717 31.394-11.695 4.0394-1.6299 4.04-1.6279 7.9376-3.2578 0 0.071-0.0006 0.07 0.07 0.07 3.4724-1.4173 3.4728-1.4181 6.9452-2.9062 2.0552-8.0788 2.0532-8.077 3.754-16.723zm-229.46 3.8985c-32.244 7.937-32.242 7.9344-62.219 13.32 7.2284 18.071 7.2272 18.073 14.668 31.254 4.1812 0.1418 4.1822 0.14 8.8594 0.2109 4.1812-0.1418 4.1822-0.1396 8.8594-0.2812-4.181-9.2126-4.1844-9.2139-8.082-20.34 13.465-1.9842 13.466-1.984 27.285-4.5351 3.5432-0.6378 3.5426-0.639 7.0858-1.3477 2.9764-0.7087 2.9768-0.7099 6.4492-1.3477-1.559-8.2204-1.5596-8.217-2.9062-16.934zm78.59 4.1093c0.567 8.8583 0.5692 8.8577 0.711 17.078 23.102 6.874 23.103 6.8753 45.426 12.828-0.7796 11.48-0.7812 11.48-1.7734 21.047 11.055 1.7007 11.058 1.6998 21.687 3.1171 2.126-13.819 2.123-13.818 4.3906-32.598-34.512-9.5669-34.512-9.5672-70.441-21.473zm-237.54 0.2813c0.2834 0.2126 0.6384 0.3538 0.9218 0.5664 0-0.071-0.0006-0.068-0.4258-0.3516zm457.94 0.9922c-21.968 10.842-21.969 10.844-43.937 20.766-18.071-2.0551-18.068-2.0549-37.84-5.0313-1.3464 0.567-1.3494 0.5654-3.121 1.2032-10.276 4.1102-10.275 4.109-21.117 8.1484 30.402 4.3937 30.404 4.3974 57.687 6.0273 33.095-14.173 33.094-14.173 66.047-30.473-2.7638 0-2.7636 0-5.5274-0.074-6.0944-0.1418-6.0968-0.1412-12.191-0.5664zm18.566 2.3398c-32.74 15.945-32.74 15.947-65.48 29.766-7.8662 10.488-7.8638 10.488-16.297 16.086 5.386-1.5591 5.3838-1.5621 10.274-3.1211 5.3858-1.7008 5.388-1.6971 10.703-3.4688 6.1654-4.0393 6.1644-4.0394 11.621-9.9922 20.976-8.7874 20.976-8.7902 42.094-18.641 3.6852-5.0315 3.6844-5.0305 7.086-10.629zm-456.3 4.4649c7.2282 6.0944 7.227 6.0934 14.668 10.629 6.307 2.9763 12.684 5.8807 19.133 8.6445-6.3072-3.5433-6.3074-3.5405-12.473-8.3594 13.819 2.6221 13.822 2.6195 28.633 3.8242-3.3306-5.2441-3.3322-5.2442-6.3086-10.984-23.244-0.4252-23.243-0.4232-43.652-3.7539zm136.42 11.551c-1.4882 0.2126-1.4918 0.2132-3.0508 0.4258-9.2126 1.7717-9.2094 1.7696-18.422 3.2578 35.362 12.898 35.363 12.899 69.945 23.387 31.748-6.307 31.745-6.3057 65.336-15.164-12.331-3.4016-12.331-3.4009-25.016-7.086-21.968 6.0945-21.968 6.0935-43.016 11.125-22.748-7.5118-22.746-7.5122-45.777-15.945zm-102.83 4.3946c31.465 13.181 31.462 13.179 63.281 24.234 24.591 2.4804 24.592 2.4833 51.379 2.1289-12.047-3.6141-12.048-3.6146-23.953-7.4414-17.22 0.6378-17.218 0.635-33.801-0.1446-20.905-7.7244-20.906-7.7243-41.953-16.512-7.7954-0.9921-7.7958-0.99-14.953-2.2656zm411.16 0.1406c-14.528 5.1023-14.526 5.1012-31.18 8.6445-3.189 3.1181-3.1884 3.1212-6.5898 5.6016 1.4882-0.3544 1.4884-0.355 3.4726-0.9219l0.4258-0.1446c5.3858-1.7008 5.3836-1.6971 10.769-3.4688 7.7954-3.0472 15.519-6.3093 23.102-9.7109zm-412.94 0.07c3.7558 2.9055 3.758 2.9069 7.7266 5.3164 2.8346 1.1338 2.8332 1.1351 5.6678 2.3398 9.071 3.5433 9.0698 3.5426 18.637 7.0859 7.2992 2.5512 7.299 2.5499 15.023 5.1719l0.4962 0.211c6.307 2.0551 12.688 3.9705 19.066 5.7421-2.3386-0.9921-2.3412-0.9905-4.6798-2.1953-30.827-10.701-30.827-10.703-61.937-23.672zm80.082 1.207c1.9134 6.0945 1.9124 6.0946 3.6132 11.48 22.252 7.37 22.249 7.3681 44.359 13.746 2.0552 6.4488 2.0588 6.4489 5.0352 10.984 10.559 1.9134 10.558 1.9125 21.117 3.6133-2.9056-6.1653-2.9076-6.1631-5.7422-17.289-33.803-10.134-33.8-10.134-68.383-22.535zm215.01 4.0391c-1.7716 6.2362-1.774 6.2341-3.1914 11.762 19.488 1.6299 19.487 1.6328 37.629 2.1289-4.677 6.4488-4.6742 6.4472-8.8554 10.699 8.0788-1.3465 8.078-1.3466 16.086-2.9766 8.0078-5.6693 8.0088-5.668 15.379-16.156-27.213-1.4173-27.212-1.4177-57.047-5.457zm-73.703 4.6054c-33.732 8.4331-33.732 8.4345-65.976 14.316 2.9054 11.268 2.9058 11.265 5.457 17.359 4.6062 0.071 4.6084 0.071 9.2148 0 5.1024-0.1418 5.1008-0.1424 10.203-0.4258-1.2756-4.5354-1.2758-4.5339-1.9844-11.195 20.976-3.5433 20.976-3.5421 42.519-8.1484 0.2836-5.6693 0.283-5.6701 0.5664-11.906zm159.31 3.2578c-2.4094 0.7087-2.4102 0.7099-4.3944 1.3477-11.055 3.8976-11.057 3.897-22.254 7.582 9-2.7638 17.861-5.7407 26.648-8.9297zm-83.551 8.0821c-21.685 6.3779-21.687 6.3764-42.734 11.691-19.772-2.2677-19.769-2.2664-40.32-5.668-11.339 2.1969-11.34 2.196-21.828 4.1094 31.606 4.9606 31.605 4.9599 61.156 7.0859 31.323-6.8031 31.323-6.8019 63.922-16.156-9.8504-0.3544-9.8488-0.3539-20.195-1.0625zm21.969 2.125c-32.173 9-32.177 8.9987-64.066 15.66-1.3464 2.3386-1.3444 2.341-2.7616 3.1914 6.307-0.5669 12.545-1.279 18.781-2.0586 1.4882-0.496 1.485-0.4961 2.9022-1.4882 13.536-2.693 13.536-2.69 27.992-5.879 2.9764-0.7795 2.9768-0.7818 6.4494-1.7031v0.07c3.4724-0.9212 3.4734-0.9197 6.3788-1.6992 1.9842-2.6929 1.9856-2.6922 4.3242-6.0938zm-251.22 1.8437c2.3386 1.3465 2.341 1.3438 4.6796 2.336 6.4488 1.7007 12.894 3.2623 19.414 4.6796-1.4882-0.496-1.485-0.4989-2.9024-1.1367 11.197 1.6299 11.194 1.6323 22.887 2.6953 2.6222 0.1418 2.6248 0.1396 5.672 0.2813l5.1016 0.1446c-1.5592-2.7638-1.5588-2.7659-3.047-6.2383-27.283 0-27.285 0-51.805-2.7617zm265.39 2.7617c-12.969 2.7638-12.967 2.7635-26.149 4.5352l-2.9764 0.7109c-9.4962 2.1969-9.4962 2.1966-18.496 4.0391 10.134-1.2047 10.132-1.2055 20.266-2.9063 9.2126-1.9133 18.356-3.9694 27.356-6.3789zm-145.06 4.961c0.3544 3.4724 0.3522 3.4734 0.2812 6.3789 19.772 2.126 19.774 2.1245 39.191 3.1875-0.4252 1.063-0.4966 1.1339-0.9218 1.4883 6.307-0.2835 12.615-0.6368 18.852-1.1329 1.4882-0.9212 1.4856-0.9225 2.832-3.332-29.126-1.9842-29.124-1.9835-60.234-6.5898zm-89.719 0.4961c0.9922 0.3543 0.9922 0.3538 1.4884 0.5664 7.1574 1.4882 14.388 2.764 21.687 3.9687-11.622-2.126-11.625-2.1257-23.176-4.5351zm2.625 0.2851c18 3.6851 17.998 3.6821 35.219 6.375 13.606 1.7717 27.356 3.12 41.246 3.7578 18.921 0.2835 18.918 0.2818 38.902-0.7812-10.772-0.5669-10.772-0.5665-21.473-1.5586-18.354 0.9921-18.352 0.9944-36.281 0.7109-19.772-2.7637-19.773-2.7664-39.828-6.664-0.9922 0-0.9918 0-2.5508-0.211-7.6536-0.6378-7.6516-0.6368-15.234-1.6289zm196.23 2.2656c-8.0788 1.2756-8.077 1.2775-16.227 2.2696-0.9212 0.4252-0.9218 0.423-1.914 0.7773 6.0944-0.9212 12.117-1.913 18.141-3.0469zm-78.805 7.5118c-16.016 0.7795-16.368 0.8526-31.746 0.7109 5.5984 0.2126 11.339 0.3516 17.008 0.3516 4.748 0 9.4942-0.069 14.242-0.211 0.4962-0.2126 0.4962-0.2137 0.4962-0.8515z" fill="url(#radialGradient4777)"/>
</g>
</svg>
